<svg width="560" height="593" viewBox="0 0 560 593" fill="none" xmlns="http://www.w3.org/2000/svg">
<path fill-rule="evenodd" clip-rule="evenodd" d="M346.283 106.945C345.396 104.311 344.569 101.536 343.805 98.6198C341.626 97.5984 339.56 97.8118 337.61 99.2602C337.141 101.454 335.902 102.735 333.894 103.103C335.658 97.5268 339.375 95.6056 345.044 97.339C346.202 100.388 346.615 103.59 346.283 106.945Z" fill="#C85B79"/>
<path fill-rule="evenodd" clip-rule="evenodd" d="M353.717 115.91C352.696 111.729 352.282 107.46 352.478 103.103C349.797 103.386 347.733 104.667 346.283 106.945C346.615 103.59 346.203 100.388 345.045 97.339C339.375 95.6056 335.658 97.5268 333.894 103.103C329.713 100.425 328.268 96.5828 329.558 91.5755C332.183 90.1016 334.455 88.1804 336.372 85.812C342.548 86.2 348.743 87.0539 354.956 88.3736C357.871 91.1055 359.11 94.5209 358.673 98.6198C358.374 102.727 357.755 106.783 356.814 110.787C356.567 113.118 355.533 114.825 353.717 115.91Z" fill="#351B5E"/>
<path fill-rule="evenodd" clip-rule="evenodd" d="M353.717 115.91C353.717 116.764 353.717 117.618 353.717 118.472C352.613 117.691 351.374 117.264 350 117.191C350 116.337 350 115.483 350 114.63C350.201 112.033 349.994 109.471 349.381 106.945C348.17 108.576 347.137 108.576 346.283 106.945C347.733 104.667 349.797 103.386 352.478 103.103C352.282 107.46 352.696 111.729 353.717 115.91Z" fill="#CF6073"/>
<path fill-rule="evenodd" clip-rule="evenodd" d="M346.283 106.945C347.137 108.576 348.17 108.576 349.38 106.945C349.994 109.472 350.2 112.033 350 114.63C348.429 117.046 346.158 118.327 343.186 118.472C340.135 117.627 337.038 117.2 333.894 117.191C333.894 115.484 333.894 113.776 333.894 112.068C340.501 111.214 340.501 110.36 333.894 109.507C333.894 108.226 333.894 106.945 333.894 105.664C333.894 104.81 333.894 103.957 333.894 103.103C335.902 102.735 337.141 101.454 337.61 99.2604C339.56 97.812 341.626 97.5986 343.805 98.62C344.569 101.536 345.396 104.311 346.283 106.945Z" fill="#F56162"/>
<path opacity="0.89" fill-rule="evenodd" clip-rule="evenodd" d="M333.894 105.664C333.894 106.945 333.894 108.226 333.894 109.506C340.501 110.36 340.501 111.214 333.894 112.068C333.894 113.776 333.894 115.483 333.894 117.191C333.894 117.618 333.894 118.045 333.894 118.472C332.242 114.203 332.242 109.933 333.894 105.664Z" fill="#DB8C8A"/>
<path fill-rule="evenodd" clip-rule="evenodd" d="M350 114.63C350 115.484 350 116.337 350 117.191C348.746 118.948 347.507 120.656 346.283 122.314C342.768 119.878 338.637 119.024 333.894 119.753C333.894 119.326 333.894 118.899 333.894 118.472C333.894 118.045 333.894 117.618 333.894 117.191C337.038 117.2 340.135 117.627 343.186 118.472C346.158 118.327 348.429 117.046 350 114.63Z" fill="#B22C3E"/>
<path fill-rule="evenodd" clip-rule="evenodd" d="M333.894 119.753C338.637 119.024 342.768 119.878 346.283 122.314C344.914 123.724 343.262 124.577 341.327 124.876C340.915 124.876 340.501 124.876 340.088 124.876C340.195 123.6 339.781 122.533 338.849 121.674C336.919 121.405 335.268 120.764 333.894 119.753Z" fill="#7E2749"/>
<path fill-rule="evenodd" clip-rule="evenodd" d="M350 117.191C351.374 117.264 352.613 117.691 353.717 118.472C355.079 119.887 355.906 121.595 356.194 123.595C356.194 126.583 356.194 129.572 356.194 132.56C351.395 134.176 346.439 135.03 341.327 135.122C341.327 134.696 341.327 134.268 341.327 133.841C341.327 130.853 341.327 127.864 341.327 124.876C343.262 124.578 344.914 123.724 346.283 122.314C347.507 120.656 348.746 118.948 350 117.191Z" fill="#F36466"/>
<path fill-rule="evenodd" clip-rule="evenodd" d="M356.194 123.595C356.607 123.595 357.021 123.595 357.433 123.595C358.224 129.341 356.571 134.037 352.478 137.684C348.587 136.929 344.871 136.075 341.327 135.122C346.439 135.03 351.395 134.175 356.194 132.56C356.194 129.572 356.194 126.583 356.194 123.595Z" fill="#D1BEC6"/>
<path fill-rule="evenodd" clip-rule="evenodd" d="M210 127.437C209.741 129.259 209.122 130.966 208.142 132.56C204.791 135.808 201.693 139.224 198.85 142.807C198.024 142.807 197.198 142.807 196.372 142.807C198.024 140.672 199.676 138.538 201.328 136.403C204.666 133.807 207.556 130.817 210 127.437Z" fill="#D89174"/>
<path fill-rule="evenodd" clip-rule="evenodd" d="M212.478 123.595C231.475 141.099 250.472 158.602 269.469 176.107C273.015 182.198 277.971 186.467 284.336 188.915C284.246 190.87 285.072 192.151 286.814 192.757C287.641 194.464 288.88 195.745 290.531 196.599C292.762 198.697 294.826 201.045 296.726 203.644C297.9 204.262 299.139 204.475 300.443 204.284C300.855 207.272 302.508 208.981 305.398 209.407C310.016 215.465 315.384 220.588 321.504 224.776C326.097 230.806 331.466 235.929 337.611 240.146C343.792 245.052 350.399 249.321 357.434 252.954C359.974 256.992 362.038 261.261 363.628 265.761C363.642 268.383 364.055 270.945 364.867 273.446C368.408 281.635 372.538 289.32 377.257 296.5C379.271 300.502 380.924 304.771 382.212 309.308C378.776 307.741 375.471 305.82 372.301 303.544C369.363 300.078 366.06 297.09 362.389 294.579C353.604 283.565 344.519 272.679 335.133 261.919C327.745 256.418 321.138 250.014 315.31 242.707C305.559 237.327 296.474 230.923 288.053 223.496C279.62 214.82 270.533 206.922 260.797 199.801C257.492 195.532 254.189 191.262 250.885 186.993C247.995 185.713 245.103 184.432 242.212 183.151C238.389 178.339 233.847 174.497 228.584 171.624C218.429 162.19 208.517 152.584 198.85 142.807C201.693 139.224 204.79 135.808 208.142 132.56C209.122 130.966 209.741 129.259 210 127.437C209.91 125.482 210.736 124.201 212.478 123.595Z" fill="#777777"/>
<path fill-rule="evenodd" clip-rule="evenodd" d="M357.434 123.595C360.688 124.353 363.993 124.78 367.345 124.876C367.942 126.049 368.355 127.33 368.584 128.718C367.074 138.936 365.835 149.182 364.867 159.457C351.239 159.457 337.611 159.457 323.982 159.457C323.982 158.176 323.982 156.895 323.982 155.614C325.313 147.455 326.966 139.343 328.938 131.28C328.913 129.709 328.501 128.429 327.699 127.437C331.182 126.189 334.899 125.335 338.85 124.876C339.55 128.016 340.376 131.004 341.328 133.841C341.328 134.268 341.328 134.695 341.328 135.122C344.871 136.075 348.588 136.929 352.478 137.684C356.571 134.037 358.224 129.341 357.434 123.595Z" fill="#CCFFED"/>
<path fill-rule="evenodd" clip-rule="evenodd" d="M338.85 124.876C339.262 124.876 339.676 124.876 340.089 124.876C340.501 124.876 340.915 124.876 341.327 124.876C341.327 127.864 341.327 130.853 341.327 133.841C340.376 131.004 339.55 128.016 338.85 124.876Z" fill="#CA958F"/>
<path fill-rule="evenodd" clip-rule="evenodd" d="M379.734 128.718C385.524 130.858 391.305 132.992 397.079 135.122C399.536 141.056 402.633 146.606 406.371 151.772C415.504 160.789 425.003 169.327 434.867 177.388C452.54 206.397 459.148 237.99 454.69 272.165C452.649 278.129 449.139 283.038 444.159 286.894C428.468 296.38 414.633 308.121 402.655 322.116C399.726 327.882 396.628 333.431 393.363 338.766C392.95 338.766 392.536 338.766 392.124 338.766C390.416 337.826 388.558 336.971 386.548 336.204C385.93 331.099 385.723 325.976 385.929 320.835C386.823 321.37 387.443 322.223 387.787 323.396C389.535 320.643 390.569 317.653 390.885 314.431C393.231 309.816 395.709 305.12 398.318 300.342C402.518 294.281 406.235 287.877 409.469 281.131C415.324 271.171 420.899 260.925 426.194 250.392C428.795 242.561 428.382 234.877 424.955 227.338C420.038 215.835 413.636 205.589 405.752 196.599C399.665 185.376 393.263 174.276 386.548 163.299C385.999 179.113 389.304 194.056 396.46 208.126C398.987 210.522 401.258 213.083 403.274 215.811C406.073 232.484 406.073 249.134 403.274 265.761C394.931 265.612 388.117 262.197 382.832 255.515C381.16 242.999 379.716 230.619 378.495 218.373C376.546 188.441 376.959 158.557 379.734 128.718Z" fill="#CCFFED"/>
<path fill-rule="evenodd" clip-rule="evenodd" d="M299.203 142.807C294.125 154.09 291.233 166.044 290.531 178.668C290.118 178.668 289.704 178.668 289.292 178.668C287.051 181.043 285.399 184.459 284.336 188.915C277.97 186.467 273.015 182.198 269.469 176.107C278.959 164.589 288.871 153.488 299.203 142.807Z" fill="#83EEDB"/>
<path fill-rule="evenodd" clip-rule="evenodd" d="M323.983 155.615C323.983 156.895 323.983 158.176 323.983 159.457C337.611 159.457 351.239 159.457 364.868 159.457C362.681 160.688 360.203 161.115 357.434 160.738C346.284 160.738 335.133 160.738 323.983 160.738C322.331 159.03 322.331 157.322 323.983 155.615Z" fill="#A2A8C6"/>
<path fill-rule="evenodd" clip-rule="evenodd" d="M327.699 127.437C328.501 128.429 328.913 129.709 328.938 131.28C326.966 139.343 325.313 147.455 323.982 155.614C322.331 157.322 322.331 159.03 323.982 160.737C334.493 162.009 345.231 162.436 356.195 162.018C356.401 183.795 356.195 205.569 355.575 227.338C353.03 231.006 349.519 233.141 345.044 233.742C348.455 235.66 351.345 238.222 353.717 241.426C353.097 241.853 352.478 242.281 351.858 242.707C350.505 241.688 349.06 240.833 347.522 240.146C344.194 241.841 340.89 241.841 337.611 240.146C331.465 235.929 326.097 230.806 321.504 224.776C316.887 218.718 311.518 213.595 305.398 209.407C304.989 206.004 304.577 202.588 304.159 199.161C306.853 187.356 308.504 175.402 309.115 163.299C310.375 151.279 314.092 140.178 320.265 129.999C322.25 127.983 324.728 127.129 327.699 127.437Z" fill="#301E67"/>
<path fill-rule="evenodd" clip-rule="evenodd" d="M367.345 124.876C371.851 125.35 375.98 126.63 379.734 128.718C376.959 158.556 376.547 188.441 378.496 218.372C377.902 232.196 378.934 245.857 381.593 259.357C387.472 264.356 394.286 267.132 402.035 267.682C403.603 272.478 404.842 277.388 405.752 282.411C405.068 284.759 404.036 286.894 402.655 288.815C401.033 285.753 399.794 285.753 398.938 288.815C396.266 286.26 393.168 284.553 389.646 283.692C384.91 276.471 380.159 269.213 375.398 261.919C372.647 260.759 369.962 259.478 367.345 258.077C365.894 256.994 364.242 256.141 362.389 255.515C361.06 252.758 361.06 250.196 362.389 247.83C362.858 242.016 363.27 236.038 363.628 229.899C362.874 210.824 362.049 191.826 361.15 172.905C362.212 172.022 363.037 170.956 363.628 169.703C362.128 168.14 362.128 166.646 363.628 165.22C361.881 163.463 359.816 162.396 357.434 162.018C357.434 161.592 357.434 161.164 357.434 160.738C360.203 161.115 362.68 160.688 364.867 159.457C365.835 149.182 367.074 138.936 368.584 128.718C368.355 127.33 367.942 126.049 367.345 124.876Z" fill="#1E123F"/>
<path fill-rule="evenodd" clip-rule="evenodd" d="M357.433 162.018C359.816 162.396 361.881 163.463 363.628 165.22C362.127 166.646 362.127 168.14 363.628 169.703C363.037 170.956 362.212 172.022 361.15 172.905C362.048 191.826 362.873 210.824 363.628 229.9C363.27 236.038 362.857 242.016 362.389 247.83C361.947 239.859 360.501 232.174 358.053 224.776C357.433 203.861 357.226 182.942 357.433 162.018Z" fill="#1D1142"/>
<path fill-rule="evenodd" clip-rule="evenodd" d="M320.266 129.999C314.092 140.179 310.375 151.279 309.115 163.299C306.226 176.946 303.336 190.608 300.443 204.284C299.139 204.475 297.9 204.262 296.726 203.644C294.827 201.045 292.763 198.697 290.531 196.599C290.531 190.622 290.531 184.646 290.531 178.669C291.234 166.044 294.125 154.09 299.204 142.807C304.38 135.326 311.401 131.056 320.266 129.999Z" fill="#CCFFED"/>
<path fill-rule="evenodd" clip-rule="evenodd" d="M289.293 178.668C290.011 183.982 289.186 188.679 286.815 192.757C285.073 192.151 284.246 190.87 284.337 188.915C285.4 184.459 287.051 181.043 289.293 178.668Z" fill="#2E2657"/>
<path fill-rule="evenodd" clip-rule="evenodd" d="M309.115 163.299C308.504 175.402 306.853 187.356 304.159 199.161C304.577 202.588 304.989 206.004 305.398 209.407C302.508 208.981 300.855 207.272 300.442 204.284C303.335 190.608 306.226 176.946 309.115 163.299Z" fill="#312961"/>
<path fill-rule="evenodd" clip-rule="evenodd" d="M405.752 196.599C405.454 203.252 404.629 209.656 403.275 215.811C401.259 213.083 398.988 210.521 396.46 208.126C389.304 194.056 386 179.113 386.549 163.299C393.264 174.275 399.666 185.376 405.752 196.599Z" fill="#2E2063"/>
<path fill-rule="evenodd" clip-rule="evenodd" d="M289.292 178.668C289.705 178.668 290.119 178.668 290.531 178.668C290.531 184.646 290.531 190.622 290.531 196.599C288.88 195.745 287.641 194.464 286.814 192.757C289.186 188.679 290.011 183.982 289.292 178.668Z" fill="#554A6D"/>
<path fill-rule="evenodd" clip-rule="evenodd" d="M305.398 209.407C311.519 213.595 316.887 218.718 321.505 224.777C315.384 220.588 310.016 215.465 305.398 209.407Z" fill="#4A2248"/>
<path fill-rule="evenodd" clip-rule="evenodd" d="M229.823 204.284C242.915 202.91 248.696 208.887 247.168 222.215C247.031 223.005 246.618 223.645 245.929 224.136C243.452 224.99 240.974 224.99 238.496 224.136C233.797 219.748 230.906 214.412 229.823 208.126C229.823 206.846 229.823 205.565 229.823 204.284Z" fill="#F86460"/>
<path fill-rule="evenodd" clip-rule="evenodd" d="M196.371 142.807C197.198 142.807 198.023 142.807 198.849 142.807C208.517 152.584 218.428 162.19 228.584 171.624C233.847 174.497 238.389 178.339 242.212 183.151C245.103 184.432 247.994 185.713 250.885 186.993C254.189 191.262 257.492 195.532 260.796 199.801C270.533 206.922 279.619 214.82 288.053 223.496C296.474 230.923 305.559 237.327 315.31 242.707C321.137 250.014 327.745 256.418 335.133 261.919C344.519 272.679 353.604 283.565 362.389 294.579C366.06 297.09 369.363 300.078 372.301 303.544C375.471 305.82 378.775 307.741 382.212 309.308C382.212 309.734 382.212 310.162 382.212 310.589C384.014 321.065 385.253 331.739 385.929 342.608C382.958 346.541 380.48 350.811 378.495 355.416C372.874 353.025 369.57 348.754 368.584 342.608C366.025 342.586 363.548 342.16 361.15 341.327C353.757 336.701 348.389 330.297 345.044 322.115C343.665 314.996 340.362 309.018 335.133 304.185C333.894 302.05 332.242 300.342 330.177 299.062C326.46 296.073 323.156 292.658 320.265 288.815C317.292 284.457 313.575 281.041 309.115 278.569C302.141 273.069 295.532 267.092 289.292 260.638C288.053 259.784 286.814 258.931 285.575 258.077C284.336 255.942 282.685 254.234 280.619 252.954C279.38 250.818 277.729 249.111 275.664 247.83C268.972 240.857 261.952 233.812 254.602 226.698C252.241 224.878 249.764 223.383 247.168 222.215C248.696 208.887 242.915 202.91 229.823 204.284C213.354 190.248 197.66 175.306 182.743 159.457C186.829 153.524 191.371 147.973 196.371 142.807Z" fill="#CECCCC"/>
<path fill-rule="evenodd" clip-rule="evenodd" d="M229.823 208.126C230.906 214.413 233.796 219.748 238.496 224.136C240.973 224.99 243.451 224.99 245.929 224.136C246.618 223.646 247.031 223.005 247.168 222.215C249.764 223.383 252.242 224.878 254.602 226.698C261.952 233.812 268.972 240.857 275.664 247.831C274.837 247.831 274.012 247.831 273.186 247.831C271.204 246.867 269.345 245.587 267.611 243.988C266.756 246.825 265.722 249.601 264.513 252.313C265.155 255.543 266.807 258.105 269.469 259.998C267.595 262.405 266.769 265.18 266.991 268.323C260.508 267.48 259.683 265.133 264.513 261.279C262.379 260.609 260.727 259.328 259.558 257.436C261.521 250.902 262.553 244.285 262.655 237.584C261.659 235.914 260.213 235.06 258.319 235.023C250.892 239.351 245.317 237.643 241.593 229.9C239.857 232.067 237.586 232.921 234.779 232.461C234.807 235.57 235.427 238.558 236.637 241.427C237.236 240.213 237.441 238.932 237.257 237.584C240.562 237.797 243.454 239.078 245.929 241.427C246.619 244.267 246.619 247.256 245.929 250.392C247.63 250.593 249.283 250.379 250.885 249.752C248.177 248.978 247.971 247.485 250.265 245.269C253.668 243.3 256.558 240.739 258.938 237.584C259.558 238.865 260.177 240.146 260.796 241.427C257.928 242.367 255.657 244.075 253.982 246.55C252.829 256.891 251.383 267.137 249.646 277.288C247.463 277.472 245.398 277.044 243.451 276.008C242.215 278.556 240.976 281.118 239.735 283.692C238.261 284.882 236.61 285.309 234.779 284.973C218.84 279.167 210.58 267.426 210 249.752C211.244 232.881 217.851 219.005 229.823 208.126Z" fill="#83EEDB"/>
<path fill-rule="evenodd" clip-rule="evenodd" d="M323.982 160.738C335.133 160.738 346.283 160.738 357.434 160.738C357.434 161.164 357.434 161.592 357.434 162.018C357.227 182.942 357.434 203.861 358.053 224.776C360.501 232.174 361.947 239.859 362.389 247.83C361.06 250.196 361.06 252.758 362.389 255.515C360.738 254.661 359.085 253.808 357.434 252.954C350.399 249.321 343.792 245.052 337.611 240.146C340.89 241.841 344.194 241.841 347.522 240.146C349.06 240.834 350.506 241.688 351.859 242.707C352.478 242.281 353.097 241.853 353.717 241.427C351.346 238.222 348.455 235.66 345.044 233.742C349.519 233.141 353.031 231.006 355.575 227.338C356.195 205.569 356.402 183.795 356.195 162.018C345.231 162.436 334.494 162.009 323.982 160.738Z" fill="#301D5D"/>
<path fill-rule="evenodd" clip-rule="evenodd" d="M397.08 135.122C413.238 140.177 426.66 149.571 437.346 163.299C450.934 180.709 461.671 199.92 469.558 220.934C475.531 243.513 474.292 265.713 465.841 287.535C460.866 298.685 455.29 309.359 449.115 319.554C442.568 325.47 436.373 331.874 430.531 338.766C424.815 342.117 419.447 345.96 414.425 350.293C409.057 350.293 403.687 350.293 398.319 350.293C398.319 349.866 398.319 349.438 398.319 349.012C399.052 345.002 397.814 342.014 394.602 340.046C393.776 340.046 393.363 339.62 393.363 338.766C396.629 333.431 399.726 327.882 402.655 322.116C414.633 308.121 428.469 296.38 444.16 286.894C449.14 283.038 452.65 278.129 454.691 272.165C459.148 237.99 452.541 206.397 434.868 177.388C425.003 169.327 415.504 160.789 406.372 151.772C402.634 146.606 399.537 141.056 397.08 135.122Z" fill="#55C7B2"/>
<path fill-rule="evenodd" clip-rule="evenodd" d="M275.664 247.831C277.729 249.111 279.381 250.819 280.62 252.954C277.729 252.527 276.077 250.819 275.664 247.831Z" fill="#4D2F3C"/>
<path fill-rule="evenodd" clip-rule="evenodd" d="M273.185 247.831C273.185 255.089 273.185 262.346 273.185 269.604C268.479 274.025 263.11 277.44 257.079 279.85C257.079 276.862 257.079 273.873 257.079 270.885C258.505 264.289 258.711 257.457 257.699 250.392C256.065 252.633 255.445 255.195 255.84 258.077C254.957 268.086 251.653 277.051 245.929 284.973C242.041 286.486 238.324 286.486 234.778 284.973C236.609 285.309 238.261 284.882 239.734 283.692C240.975 281.118 242.214 278.556 243.451 276.008C245.397 277.044 247.463 277.472 249.646 277.288C251.383 267.137 252.828 256.891 253.982 246.55C255.657 244.075 257.928 242.367 260.796 241.427C260.177 240.146 259.557 238.865 258.938 237.584C256.558 240.739 253.667 243.3 250.265 245.269C247.971 247.485 248.176 248.978 250.885 249.752C249.283 250.379 247.63 250.593 245.929 250.392C246.619 247.255 246.619 244.267 245.929 241.427C243.453 239.078 240.562 237.797 237.256 237.584C237.441 238.932 237.235 240.212 236.637 241.427C235.426 238.558 234.807 235.57 234.778 232.461C237.586 232.921 239.857 232.067 241.592 229.9C245.317 237.643 250.892 239.351 258.318 235.023C260.212 235.06 261.658 235.914 262.654 237.584C262.553 244.285 261.521 250.902 259.557 257.436C260.727 259.328 262.378 260.609 264.513 261.279C259.682 265.133 260.507 267.48 266.991 268.323C266.769 265.18 267.594 262.405 269.469 259.998C266.806 258.105 265.155 255.543 264.513 252.313C265.722 249.601 266.755 246.825 267.61 243.988C269.345 245.587 271.203 246.867 273.185 247.831Z" fill="#83EEDB"/>
<path fill-rule="evenodd" clip-rule="evenodd" d="M257.08 270.885C257.468 266.348 257.054 262.079 255.841 258.077C255.446 255.195 256.065 252.633 257.699 250.392C258.712 257.457 258.506 264.289 257.08 270.885Z" fill="#586C88"/>
<path fill-rule="evenodd" clip-rule="evenodd" d="M273.186 247.831C274.012 247.831 274.837 247.831 275.663 247.831C276.076 250.819 277.729 252.527 280.619 252.954C282.684 254.234 284.336 255.942 285.575 258.077C281.963 262.507 277.834 266.349 273.186 269.604C273.186 262.346 273.186 255.089 273.186 247.831Z" fill="#217667"/>
<path fill-rule="evenodd" clip-rule="evenodd" d="M378.495 218.373C379.716 230.619 381.16 242.999 382.832 255.515C388.117 262.197 394.931 265.611 403.274 265.761C404.954 269.702 405.986 273.971 406.372 278.569C407.249 279.697 408.282 280.55 409.469 281.131C406.235 287.877 402.519 294.28 398.319 300.342C395.961 294.492 393.07 288.941 389.646 283.692C393.168 284.553 396.266 286.26 398.938 288.815C399.794 285.753 401.033 285.753 402.655 288.815C404.036 286.894 405.068 284.759 405.752 282.411C404.842 277.388 403.603 272.478 402.035 267.682C394.286 267.132 387.472 264.356 381.593 259.357C378.934 245.857 377.902 232.196 378.495 218.373Z" fill="#241E40"/>
<path fill-rule="evenodd" clip-rule="evenodd" d="M289.292 260.638C295.533 267.092 302.141 273.069 309.115 278.569C310.767 280.704 312.419 282.838 314.071 284.973C309.158 281.8 303.789 279.665 297.965 278.569C297.867 276.738 298.279 275.029 299.203 273.446C298.188 271.383 296.535 270.528 294.248 270.884C294.248 269.604 294.248 268.323 294.248 267.042C292.143 267.007 290.49 266.153 289.292 264.481C289.292 263.2 289.292 261.919 289.292 260.638Z" fill="#3B2253"/>
<path fill-rule="evenodd" clip-rule="evenodd" d="M255.841 258.077C257.054 262.079 257.468 266.348 257.08 270.884C257.08 273.872 257.08 276.862 257.08 279.85C253.912 282.548 250.195 284.257 245.93 284.973C251.654 277.051 254.958 268.086 255.841 258.077Z" fill="#217667"/>
<path fill-rule="evenodd" clip-rule="evenodd" d="M309.115 278.569C313.575 281.041 317.292 284.457 320.266 288.815C317.898 288.079 315.833 286.798 314.071 284.973C312.419 282.838 310.767 280.704 309.115 278.569Z" fill="#C26ACF"/>
<path fill-rule="evenodd" clip-rule="evenodd" d="M289.292 264.48C290.49 266.153 292.143 267.007 294.248 267.042C294.248 268.323 294.248 269.604 294.248 270.884C296.535 270.528 298.188 271.383 299.204 273.446C298.28 275.029 297.867 276.738 297.965 278.569C303.789 279.665 309.159 281.8 314.071 284.973C315.833 286.798 317.898 288.079 320.266 288.815C323.156 292.658 326.461 296.073 330.177 299.061C330.452 301.76 331.691 303.895 333.894 305.465C330.181 306.423 326.464 307.278 322.744 308.027C321.299 312.722 319.853 317.419 318.407 322.115C318.048 330.927 317.016 339.465 315.31 347.731C313.659 347.731 312.006 347.731 310.354 347.731C309.926 357.85 308.687 367.456 306.638 376.548C309.06 389.433 311.125 402.455 312.832 415.612C311.671 418.737 312.498 421.299 315.31 423.297C314.708 455.679 307.894 486.417 294.868 515.513C294.501 519.619 293.881 523.674 293.009 527.68C292.593 528.999 291.767 529.64 290.531 529.601C289.622 528.054 289.209 526.347 289.292 524.478C288.926 522.041 288.099 519.906 286.814 518.074C281.345 433.484 282.17 348.953 289.292 264.48Z" fill="#2F1E66"/>
<path fill-rule="evenodd" clip-rule="evenodd" d="M357.434 252.954C359.085 253.808 360.738 254.661 362.389 255.515C364.242 256.141 365.894 256.994 367.345 258.077C366.672 258.154 366.26 258.58 366.106 259.358C375.449 277.383 383.709 295.741 390.885 314.431C390.569 317.653 389.536 320.643 387.788 323.396C387.443 322.223 386.824 321.37 385.929 320.835C386.034 316.802 384.796 313.386 382.212 310.589C382.212 310.162 382.212 309.734 382.212 309.308C380.924 304.771 379.271 300.502 377.257 296.5C373.643 285.677 369.099 275.431 363.628 265.761C362.037 261.261 359.973 256.992 357.434 252.954Z" fill="#301633"/>
<path fill-rule="evenodd" clip-rule="evenodd" d="M363.628 265.761C369.099 275.431 373.642 285.678 377.256 296.5C372.537 289.32 368.408 281.635 364.867 273.446C364.054 270.945 363.642 268.383 363.628 265.761Z" fill="#651E70"/>
<path fill-rule="evenodd" clip-rule="evenodd" d="M367.345 258.077C369.962 259.478 372.647 260.759 375.398 261.919C380.16 269.213 384.91 276.471 389.646 283.692C393.071 288.941 395.961 294.492 398.319 300.342C395.71 305.12 393.232 309.816 390.885 314.431C383.709 295.74 375.449 277.383 366.106 259.357C366.26 258.58 366.673 258.154 367.345 258.077Z" fill="#441D64"/>
<path fill-rule="evenodd" clip-rule="evenodd" d="M382.213 310.589C384.796 313.386 386.035 316.802 385.93 320.835C385.724 325.976 385.931 331.099 386.549 336.204C388.559 336.971 390.417 337.826 392.124 338.766C389.078 338.522 387.013 339.803 385.93 342.608C385.253 331.739 384.014 321.065 382.213 310.589Z" fill="#C26ACF"/>
<path fill-rule="evenodd" clip-rule="evenodd" d="M330.177 299.062C332.242 300.342 333.893 302.05 335.132 304.185C335.309 306.441 334.896 308.576 333.893 310.589C341.26 311.717 341.88 314.705 335.752 319.554C335.54 326 334.92 332.404 333.893 338.766C332.471 341.135 330.82 341.989 328.938 341.327C330.023 342.289 331.262 342.929 332.654 343.248C330.398 346.394 329.572 350.022 330.177 354.135C328.212 352.966 326.353 352.966 324.601 354.135C324.33 352.293 323.711 350.586 322.743 349.012C321.832 353.113 320.386 356.955 318.407 360.539C316.744 358.743 315.711 359.17 315.309 361.82C314.048 365.613 313.222 369.029 312.831 372.066C311.596 372.104 310.77 371.464 310.354 370.145C311.052 362.413 312.705 354.942 315.309 347.731C317.015 339.465 318.047 330.927 318.407 322.116C319.852 317.419 321.298 312.722 322.743 308.027C326.463 307.278 330.18 306.423 333.893 305.465C331.691 303.895 330.452 301.76 330.177 299.062Z" fill="#1E1240"/>
<path fill-rule="evenodd" clip-rule="evenodd" d="M345.045 322.116C348.39 330.297 353.758 336.701 361.151 341.327C364.455 345.596 368.172 349.438 372.301 352.854C373.107 355.333 373.519 357.894 373.54 360.539C373.128 360.539 372.714 360.539 372.301 360.539C371.612 354.897 369.34 354.043 365.487 357.977C364.868 357.551 364.248 357.123 363.629 356.697C366.895 354.693 366.688 352.986 363.009 351.573C360.904 352.734 358.632 353.16 356.195 352.854C357.373 358.873 355.308 363.141 350 365.662C348.999 363.199 348.38 360.638 348.142 357.977C347.526 361.366 347.319 364.782 347.523 368.224C345.652 352.999 343.588 337.63 341.328 322.116C341.13 319.94 341.335 317.804 341.947 315.712C342.411 318.262 343.443 320.397 345.045 322.116Z" fill="#372466"/>
<path fill-rule="evenodd" clip-rule="evenodd" d="M398.318 350.293C403.687 350.293 409.056 350.293 414.425 350.293C415.035 353.246 415.448 356.234 415.663 359.258C414.13 357.063 413.303 354.501 413.186 351.574C411.534 351.574 409.881 351.574 408.23 351.574C405.227 351.179 402.336 351.607 399.557 352.854C400.608 355.299 401.022 357.861 400.796 360.539C399.225 357.459 398.399 354.043 398.318 350.293Z" fill="#651E70"/>
<path fill-rule="evenodd" clip-rule="evenodd" d="M361.15 341.327C363.548 342.16 366.026 342.586 368.584 342.608C369.57 348.754 372.874 353.024 378.496 355.416C378.496 356.27 378.496 357.123 378.496 357.977C376.43 356.27 374.366 354.561 372.301 352.854C368.171 349.438 364.455 345.596 361.15 341.327Z" fill="#C26ACF"/>
<path fill-rule="evenodd" clip-rule="evenodd" d="M394.602 340.046C397.813 342.014 399.052 345.002 398.319 349.012C397.08 350.719 395.841 352.428 394.602 354.135C393.776 354.989 392.95 355.842 392.124 356.696C393.886 353.556 395.125 350.14 395.841 346.45C395.558 344.264 395.145 342.129 394.602 340.046Z" fill="#D46974"/>
<path fill-rule="evenodd" clip-rule="evenodd" d="M408.23 351.573C406.472 352.791 404.408 353.218 402.035 352.854C401.627 361.861 402.039 370.826 403.274 379.75C405.49 380.753 406.729 382.461 406.991 384.874C404.896 383.127 402.831 381.419 400.797 379.75C400.797 373.347 400.797 366.943 400.797 360.539C401.022 357.861 400.608 355.299 399.558 352.854C402.337 351.607 405.227 351.179 408.23 351.573Z" fill="#C26ACF"/>
<path fill-rule="evenodd" clip-rule="evenodd" d="M398.318 349.012C398.318 349.438 398.318 349.866 398.318 350.293C398.399 354.043 399.225 357.459 400.796 360.539C400.796 366.943 400.796 373.347 400.796 379.751C399.971 375.241 399.145 370.546 398.318 365.662C397.488 367.956 396.662 370.091 395.841 372.066C395.428 366.089 395.014 360.112 394.602 354.135C395.841 352.428 397.079 350.719 398.318 349.012Z" fill="#2D1629"/>
<path fill-rule="evenodd" clip-rule="evenodd" d="M228.584 379.751C228.584 378.896 228.172 378.47 227.346 378.47C223.629 378.47 219.912 378.47 216.195 378.47C205.736 378.739 195.412 377.671 185.222 375.268C180.835 373.896 180.008 371.762 182.744 368.864C209.688 362.712 236.532 362.925 263.275 369.504C264.616 370.612 264.822 371.893 263.894 373.347C261.328 374.66 258.644 375.726 255.841 376.549C246.674 377.479 237.588 378.545 228.584 379.751Z" fill="#888D8E"/>
<path fill-rule="evenodd" clip-rule="evenodd" d="M372.301 360.539C369.828 367.054 369.208 373.885 370.442 381.031C373.58 389.714 376.471 398.679 379.115 407.928C379.734 422.01 379.941 436.098 379.734 450.193C377.244 471.197 374.972 492.544 372.92 514.232C372.094 515.087 371.269 515.94 370.442 516.794C369.372 524.021 368.545 531.279 367.964 538.567C366.831 537.507 366.006 536.226 365.486 534.725C364.992 535.017 364.786 535.444 364.867 536.005C364.041 536.005 363.628 535.579 363.628 534.725C364.099 531.91 363.272 529.774 361.15 528.321C354.673 475.142 350.131 421.777 347.522 368.224C347.319 364.782 347.526 361.366 348.141 357.977C348.379 360.638 348.999 363.199 350 365.662C355.307 363.141 357.373 358.873 356.194 352.854C358.631 353.16 360.904 352.734 363.009 351.573C366.687 352.986 366.894 354.693 363.628 356.697C364.247 357.123 364.867 357.551 365.486 357.977C369.34 354.043 371.612 354.897 372.301 360.539Z" fill="#2F1E66"/>
<path fill-rule="evenodd" clip-rule="evenodd" d="M394.602 354.135C395.014 360.112 395.428 366.089 395.841 372.066C395.889 374.274 395.477 374.7 394.602 373.347C394.967 370.484 394.554 367.923 393.363 365.662C393.147 362.638 392.735 359.65 392.124 356.697C392.95 355.842 393.776 354.989 394.602 354.135Z" fill="#C26ACF"/>
<path fill-rule="evenodd" clip-rule="evenodd" d="M408.23 351.573C409.882 351.573 411.534 351.573 413.186 351.573C413.304 354.501 414.13 357.063 415.664 359.258C417.146 371.158 417.971 383.111 418.142 395.12C414.07 392.621 410.354 389.632 406.991 386.154C406.991 385.728 406.991 385.3 406.991 384.874C406.729 382.461 405.49 380.753 403.274 379.751C402.039 370.826 401.627 361.861 402.035 352.854C404.408 353.218 406.472 352.792 408.23 351.573Z" fill="#651E70"/>
<path fill-rule="evenodd" clip-rule="evenodd" d="M330.177 354.135C333.264 365.514 333.471 377.04 330.796 388.716C327.237 385.386 323.727 385.386 320.265 388.716C319.003 391.226 319.003 393.788 320.265 396.401C316.961 399.855 314.896 399.002 314.071 393.839C312.947 386.659 312.534 379.401 312.832 372.066C313.222 369.029 314.048 365.613 315.31 361.82C315.711 359.17 316.744 358.743 318.407 360.539C320.387 356.955 321.833 353.113 322.743 349.012C323.711 350.586 324.33 352.293 324.602 354.135C326.353 352.966 328.212 352.966 330.177 354.135Z" fill="#231844"/>
<path fill-rule="evenodd" clip-rule="evenodd" d="M216.194 378.47C219.911 378.47 223.628 378.47 227.345 378.47C227.345 380.177 227.345 381.886 227.345 383.593C223.628 383.593 219.911 383.593 216.194 383.593C216.194 381.886 216.194 380.177 216.194 378.47Z" fill="#30265D"/>
<path fill-rule="evenodd" clip-rule="evenodd" d="M227.345 378.47C228.171 378.47 228.584 378.896 228.584 379.751C228.916 381.798 228.502 383.506 227.345 384.874C223.628 384.874 219.911 384.874 216.194 384.874C216.194 384.447 216.194 384.019 216.194 383.593C219.911 383.593 223.628 383.593 227.345 383.593C227.345 381.886 227.345 380.177 227.345 378.47Z" fill="#767A97"/>
<path fill-rule="evenodd" clip-rule="evenodd" d="M372.301 360.539C372.713 360.539 373.127 360.539 373.54 360.539C373.615 363.218 374.854 365.139 377.256 366.302C375.622 368.387 373.971 368.174 372.301 365.662C371.888 367.157 371.474 368.65 371.062 370.145C372.466 375.535 374.117 380.872 376.018 386.154C377.829 387.398 379.48 386.972 380.973 384.874C380.714 384.123 380.301 383.483 379.734 382.952C381.336 382.325 382.989 382.111 384.69 382.312C383.224 378.937 382.192 375.521 381.593 372.066C384.846 374.7 387.944 377.475 390.885 380.391C388.552 383.44 385.661 385.788 382.212 387.435C381.007 389.858 380.18 392.42 379.734 395.12C381.655 399.036 383.306 403.093 384.69 407.287C383.669 422.032 382.018 436.334 379.734 450.193C379.941 436.098 379.734 422.01 379.115 407.928C376.471 398.679 373.581 389.714 370.442 381.031C369.208 373.885 369.828 367.054 372.301 360.539Z" fill="#1E1144"/>
<path fill-rule="evenodd" clip-rule="evenodd" d="M315.309 347.731C312.705 354.942 311.052 362.413 310.354 370.145C310.77 371.464 311.596 372.104 312.831 372.066C312.534 379.401 312.947 386.659 314.07 393.839C313.297 394.373 312.885 395.228 312.831 396.401C314.551 405.278 315.376 414.243 315.309 423.297C312.497 421.299 311.671 418.738 312.831 415.612C311.124 402.455 309.059 389.433 306.637 376.549C308.686 367.456 309.925 357.851 310.354 347.731C312.005 347.731 313.658 347.731 315.309 347.731Z" fill="#2F205E"/>
<path fill-rule="evenodd" clip-rule="evenodd" d="M402.036 468.124C400.468 482.186 398.816 496.274 397.08 510.39C395.13 510.95 393.684 512.23 392.744 514.232C392.522 518.142 391.902 521.985 390.885 525.759C388.441 523.232 385.963 520.671 383.452 518.075C382.213 516.367 380.974 516.367 379.735 518.075C380.425 525.116 380.425 532.374 379.735 539.848C376.531 541.103 373.227 541.529 369.823 541.129C366.933 540.702 365.28 538.993 364.868 536.005C364.787 535.444 364.993 535.017 365.487 534.725C366.006 536.226 366.831 537.507 367.965 538.567C368.546 531.279 369.372 524.021 370.443 516.794C371.269 515.94 372.094 515.087 372.921 514.232C374.972 492.544 377.245 471.197 379.735 450.193C379.529 457.038 379.736 463.868 380.354 470.686C381.181 472.393 382.006 472.393 382.832 470.686C383.029 477.622 383.856 484.454 385.31 491.178C385.279 464.32 385.692 437.424 386.549 410.489C388.691 408.012 391.169 408.012 393.983 410.489C394.581 409.275 394.787 407.994 394.602 406.647C397.442 406.319 400.127 406.746 402.655 407.928C402.817 427.201 401.785 446.412 399.558 465.563C399.864 467.116 400.69 467.971 402.036 468.124Z" fill="#1E1241"/>
<path fill-rule="evenodd" clip-rule="evenodd" d="M335.132 304.185C340.362 309.018 343.665 314.996 345.044 322.115C343.442 320.397 342.41 318.262 341.947 315.712C341.335 317.804 341.129 319.939 341.327 322.115C340.521 321.359 339.694 320.506 338.849 319.554C338.123 319.822 337.504 320.249 336.991 320.835C335.15 363.957 333.291 407.076 331.416 450.193C330.391 443.168 329.772 435.91 329.557 428.42C328.305 429.492 326.859 429.918 325.221 429.701C324.6 421.582 325.425 413.683 327.699 406.006C327.553 400.794 327.346 395.458 327.079 389.997C326.566 389.411 325.947 388.984 325.221 388.716C324.395 395.546 323.569 402.378 322.743 409.208C321.715 404.955 320.888 400.686 320.265 396.401C319.003 393.788 319.003 391.226 320.265 388.716C323.727 385.386 327.237 385.386 330.796 388.716C333.471 377.04 333.264 365.513 330.177 354.135C329.572 350.022 330.398 346.394 332.655 343.248C331.262 342.929 330.023 342.289 328.938 341.327C330.82 341.989 332.471 341.135 333.894 338.766C334.921 332.404 335.54 326 335.752 319.554C341.88 314.705 341.26 311.717 333.894 310.588C334.896 308.576 335.31 306.441 335.132 304.185Z" fill="#1C123A"/>
<path fill-rule="evenodd" clip-rule="evenodd" d="M372.3 352.854C374.366 354.562 376.43 356.27 378.495 357.977C381.01 360.586 383.074 363.574 384.69 366.943C386.163 368.133 387.814 368.559 389.646 368.224C390.885 370.359 392.536 372.066 394.601 373.347C395.476 374.7 395.889 374.274 395.84 372.066C396.662 370.091 397.488 367.956 398.318 365.662C399.145 370.546 399.971 375.241 400.796 379.751C402.83 381.419 404.896 383.127 406.991 384.874C406.991 385.3 406.991 385.728 406.991 386.154C405.456 413.486 403.804 440.809 402.035 468.124C400.689 467.971 399.863 467.116 399.557 465.563C401.785 446.412 402.817 427.201 402.654 407.928C400.126 406.746 397.441 406.319 394.601 406.647C394.786 407.994 394.58 409.275 393.982 410.489C391.168 408.012 388.69 408.012 386.548 410.489C385.691 437.424 385.278 464.32 385.309 491.178C383.855 484.454 383.028 477.622 382.831 470.686C382.005 472.393 381.18 472.393 380.354 470.686C379.735 463.868 379.528 457.038 379.734 450.193C382.017 436.334 383.669 422.032 384.69 407.287C383.306 403.093 381.654 399.037 379.734 395.12C380.18 392.42 381.006 389.858 382.212 387.435C385.661 385.788 388.552 383.44 390.885 380.391C387.943 377.475 384.846 374.7 381.592 372.066C382.192 375.521 383.224 378.937 384.69 382.312C382.989 382.111 381.336 382.325 379.734 382.953C380.3 383.483 380.714 384.123 380.973 384.874C379.48 386.972 377.829 387.398 376.017 386.154C374.117 380.873 372.465 375.536 371.062 370.145C371.474 368.65 371.888 367.157 372.3 365.662C373.971 368.174 375.622 368.388 377.256 366.302C374.854 365.139 373.615 363.218 373.539 360.539C373.518 357.894 373.106 355.333 372.3 352.854Z" fill="#1E123C"/>
<path fill-rule="evenodd" clip-rule="evenodd" d="M393.363 365.662C394.554 367.923 394.968 370.484 394.602 373.347C392.537 372.066 390.885 370.359 389.646 368.224C391.538 368.317 392.777 367.463 393.363 365.662Z" fill="#C26ACF"/>
<path fill-rule="evenodd" clip-rule="evenodd" d="M331.416 450.193C329.471 475.109 326.168 499.871 321.505 524.478C320.448 528.436 319.209 532.278 317.788 536.005C315.973 543.147 311.43 546.135 304.16 544.971C296.725 545.824 292.595 542.408 291.77 534.724C291.358 533.017 290.944 531.309 290.531 529.601C291.766 529.64 292.593 528.999 293.009 527.68C293.881 523.674 294.501 519.619 294.868 515.513C307.894 486.417 314.708 455.679 315.31 423.297C315.377 414.243 314.552 405.278 312.832 396.4C312.885 395.227 313.298 394.373 314.071 393.839C314.896 399.002 316.962 399.855 320.266 396.4C320.889 400.686 321.715 404.955 322.744 409.208C323.57 402.378 324.395 395.546 325.222 388.716C325.948 388.984 326.567 389.411 327.08 389.997C327.346 395.458 327.553 400.794 327.699 406.006C325.426 413.683 324.601 421.582 325.222 429.701C326.859 429.918 328.305 429.492 329.558 428.42C329.772 435.91 330.392 443.168 331.416 450.193Z" fill="#1D1240"/>
<path fill-rule="evenodd" clip-rule="evenodd" d="M97.2568 495.021C96.1248 499.155 95.7117 503.424 96.0178 507.828C94.4259 516.25 92.5675 524.787 90.4426 533.444C89.5233 537.487 87.6649 540.902 84.8674 543.69C83.0455 542.562 82.0131 540.855 81.77 538.567C80.2374 516.538 81.8892 494.764 86.7258 473.247C87.7409 467.971 89.5993 463.06 92.301 458.518C93.7072 457.559 94.9461 457.772 96.0178 459.159C98.8468 470.997 99.2599 482.952 97.2568 495.021Z" fill="#93B1B6"/>
<path fill-rule="evenodd" clip-rule="evenodd" d="M139.381 500.144C138.41 505.21 137.997 510.333 138.142 515.513C138.142 519.782 138.142 524.052 138.142 528.321C137.038 539.495 135.18 550.596 132.567 561.621C131.203 564.047 129.551 564.901 127.611 564.182C123.395 546.924 122.363 529.42 124.514 511.671C124.578 506.934 124.992 502.238 125.753 497.582C125.954 490.335 128.225 483.931 132.567 478.37C134.722 479.928 135.961 482.062 136.283 484.774C136.69 490.084 137.722 495.207 139.381 500.144Z" fill="#B7CED4"/>
<path fill-rule="evenodd" clip-rule="evenodd" d="M97.2566 495.02C99.8841 494.796 102.362 495.224 104.69 496.301C105.043 500.565 104.217 504.407 102.212 507.828C100.147 507.828 98.0826 507.828 96.0177 507.828C95.7115 503.424 96.1246 499.155 97.2566 495.02Z" fill="#2E2360"/>
<path fill-rule="evenodd" clip-rule="evenodd" d="M104.69 496.301C111.693 496.983 118.713 497.409 125.752 497.582C124.991 502.238 124.577 506.934 124.513 511.671C116.928 510.381 109.494 509.1 102.212 507.828C104.217 504.407 105.043 500.565 104.69 496.301Z" fill="#92AFB6"/>
<path fill-rule="evenodd" clip-rule="evenodd" d="M139.38 500.144C166.175 503.6 193.019 506.59 219.911 509.109C220.859 512.434 221.273 515.85 221.15 519.355C202.88 519.113 184.71 517.832 166.637 515.513C166.225 515.939 165.811 516.367 165.398 516.794C167.781 517.829 170.259 518.469 172.832 518.715C169.676 518.801 166.991 519.869 164.779 521.917C163.952 518.501 163.127 518.501 162.301 521.917C158.914 520.813 158.707 519.746 161.681 518.715C156.743 518.076 151.787 517.862 146.814 518.074C146.54 521.634 146.953 525.05 148.053 528.321C147.227 528.321 146.402 528.321 145.575 528.321C145.575 524.052 145.575 519.782 145.575 515.513C165.686 515.942 164.034 515.942 140.619 515.513C139.793 515.513 138.968 515.513 138.142 515.513C137.997 510.333 138.409 505.21 139.38 500.144ZM145.575 515.513C165.686 515.942 164.034 515.942 140.619 515.513C142.271 515.513 143.924 515.513 145.575 515.513Z" fill="#95B2B8"/>
<path fill-rule="evenodd" clip-rule="evenodd" d="M216.195 384.874C219.912 384.874 223.628 384.874 227.345 384.874C226.954 403.035 226.129 421.18 224.867 439.307C226.777 463.578 229.667 487.698 233.54 511.671C233.54 514.659 233.54 517.648 233.54 520.636C251.19 521.134 268.742 521.134 286.195 520.636C286.662 522.483 287.694 523.764 289.292 524.479C289.209 526.347 289.622 528.054 290.531 529.602C290.944 531.309 291.358 533.017 291.77 534.725C273.186 533.261 254.602 533.261 236.018 534.725C238.159 542.763 238.573 550.875 237.257 559.059C233.065 561.273 229.761 560.418 227.345 556.498C225.759 548.433 224.521 540.32 223.628 532.163C198.405 531.292 173.214 530.011 148.053 528.321C146.953 525.05 146.541 521.634 146.814 518.075C151.787 517.862 156.743 518.076 161.682 518.715C158.707 519.746 158.914 520.813 162.301 521.917C163.127 518.501 163.953 518.501 164.779 521.917C166.992 519.869 169.676 518.801 172.832 518.715C170.259 518.469 167.781 517.829 165.398 516.794C165.811 516.367 166.225 515.94 166.637 515.513C184.71 517.833 202.88 519.113 221.151 519.355C221.273 515.85 220.859 512.434 219.912 509.109C216.467 485.533 213.99 461.838 212.478 438.026C213.375 420.246 214.614 402.529 216.195 384.874Z" fill="#BABABA"/>
<path fill-rule="evenodd" clip-rule="evenodd" d="M233.54 511.671C251.377 513.282 269.136 515.417 286.814 518.075C288.099 519.906 288.926 522.041 289.292 524.478C287.694 523.764 286.662 522.483 286.195 520.636C268.742 521.134 251.19 521.134 233.54 520.636C233.54 517.648 233.54 514.659 233.54 511.671Z" fill="#93AFB5"/>
<path fill-rule="evenodd" clip-rule="evenodd" d="M138.142 515.513C138.968 515.513 139.793 515.513 140.619 515.513C142.271 515.513 143.924 515.513 145.575 515.513C145.575 519.782 145.575 524.052 145.575 528.321C143.097 528.321 140.619 528.321 138.142 528.321C138.142 524.052 138.142 519.782 138.142 515.513Z" fill="#2C205F"/>
<path fill-rule="evenodd" clip-rule="evenodd" d="M361.15 528.321C363.272 529.775 364.099 531.91 363.628 534.725C357.241 536.715 350.634 537.568 343.805 537.286C335.121 536.966 326.449 536.538 317.787 536.006C319.208 532.278 320.447 528.436 321.504 524.479C323.456 523.742 325.521 523.316 327.699 523.198C336.354 524.064 345.026 524.704 353.716 525.119C356.579 525.421 359.057 526.488 361.15 528.321Z" fill="#B8CDD5"/>
<path fill-rule="evenodd" clip-rule="evenodd" d="M397.08 510.39C396.455 519.822 395.423 529.213 393.983 538.567C386.304 544.187 378.25 545.041 369.823 541.129C373.227 541.529 376.531 541.103 379.735 539.848C380.425 532.374 380.425 525.116 379.735 518.075C380.974 516.367 382.213 516.367 383.452 518.075C385.963 520.671 388.441 523.232 390.885 525.759C391.902 521.985 392.522 518.142 392.744 514.232C393.684 512.23 395.13 510.95 397.08 510.39Z" fill="#241A42"/>
<path opacity="0.776" fill-rule="evenodd" clip-rule="evenodd" d="M359.911 562.902C369.682 561.866 379.593 560.585 389.646 559.059C389.646 556.924 389.646 554.791 389.646 552.656C383.17 553.994 376.768 553.994 370.442 552.656C368.367 554.058 366.921 555.979 366.106 558.419C361.977 558.846 357.846 559.273 353.717 559.7C352.785 560.559 352.371 561.626 352.478 562.902C349.471 561.904 349.471 560.409 352.478 558.419C359.034 556.874 365.022 554.1 370.442 550.094C376.565 553.164 382.76 553.164 389.027 550.094C391.592 552.598 392.419 555.586 391.504 559.059C381.252 562.288 370.721 563.569 359.911 562.902Z" fill="#16102F"/>
<path fill-rule="evenodd" clip-rule="evenodd" d="M294.247 550.094C300.502 553.173 306.902 553.173 313.451 550.094C315.236 553.356 315.856 556.558 315.309 559.7C301.819 562.469 288.19 563.536 274.424 562.902C274.214 561.209 274.626 559.714 275.663 558.419C279.793 557.138 283.923 555.857 288.053 554.577C290.635 553.684 292.7 552.189 294.247 550.094Z" fill="#181038"/>
<path fill-rule="evenodd" clip-rule="evenodd" d="M359.912 562.902C357.434 562.902 354.956 562.902 352.478 562.902C352.372 561.626 352.786 560.559 353.717 559.7C357.847 559.273 361.977 558.846 366.107 558.419C366.922 555.979 368.368 554.058 370.443 552.656C376.769 553.994 383.17 553.994 389.646 552.656C389.646 554.791 389.646 556.924 389.646 559.059C379.594 560.585 369.682 561.866 359.912 562.902Z" fill="#1F1441"/>
<path fill-rule="evenodd" clip-rule="evenodd" d="M218.053 44.9379C219.884 44.6023 221.536 45.0292 223.009 46.2187C220.953 47.9052 219.508 50.0399 218.672 52.6226C217.479 60.2624 216.86 67.9471 216.814 75.6766C214.748 91.4879 212.475 107.284 210 123.065C208.579 127.059 206.927 130.901 205.044 134.592C201.693 137.84 198.595 141.256 195.752 144.839C191.127 149.612 186.998 154.735 183.363 160.208C180.673 162.769 177.783 165.118 174.69 167.252C169.322 167.679 163.952 168.106 158.584 168.533C155.2 171.693 153.135 175.535 152.389 180.06C153.353 184.101 153.56 188.157 153.009 192.227C148.013 198.453 142.851 204.431 137.522 210.158C136.717 205.496 134.858 201.227 131.947 197.35C120.531 184.882 107.936 174.209 94.1592 165.331C96.2245 162.343 98.7024 159.781 101.593 157.646C106.805 157.722 109.695 155.16 110.265 149.962C116.886 150.174 123.494 149.96 130.088 149.321C130.708 148.681 131.327 148.041 131.947 147.4C133.448 138.964 134.275 130.425 134.425 121.785C138.824 118.334 141.921 114.064 143.717 108.977C164.67 84.7403 188.209 63.8209 214.336 46.2187C215.44 45.4377 216.679 45.0108 218.053 44.9379Z" fill="#1F123F"/>
<path fill-rule="evenodd" clip-rule="evenodd" d="M143.717 108.866C141.921 113.953 138.824 118.223 134.425 121.674C134.275 130.314 133.448 138.853 131.947 147.289C131.327 147.93 130.708 148.57 130.088 149.21C123.493 149.85 116.886 150.063 110.265 149.851C109.695 155.05 106.805 157.611 101.593 157.536C102.944 153.785 105.422 151.011 109.026 149.21C129.675 151.33 137.728 141.724 133.186 120.393C136.984 116.684 140.494 112.842 143.717 108.866Z" fill="#32102E"/>
<path fill-rule="evenodd" clip-rule="evenodd" d="M215.575 46.2338C217.333 45.0156 219.397 44.5886 221.77 44.953C220.251 53.0196 218.805 61.1313 217.433 69.2878C216.732 72.1344 215.699 74.696 214.336 76.9724C214.382 69.2429 215.001 61.5583 216.194 53.9184C217.029 51.3357 218.475 49.2011 220.531 47.5145C219.058 46.3251 217.406 45.8982 215.575 46.2338Z" fill="#291434"/>
<path fill-rule="evenodd" clip-rule="evenodd" d="M96.6095 163.939C110.386 172.818 122.981 183.491 134.397 195.959C137.309 199.836 139.167 204.105 139.972 208.767C139.972 209.193 139.972 209.621 139.972 210.047C131.886 207.576 124.452 203.733 117.671 198.52C109.815 190.609 102.589 182.07 95.99 172.905C93.3572 169.48 93.5641 166.492 96.6095 163.939Z" fill="#EEECF1"/>
<path fill-rule="evenodd" clip-rule="evenodd" d="M442.317 326.598C460.847 344.893 479.843 362.824 499.308 380.391C504.699 384.475 509.035 389.598 512.317 395.76C513.297 401.429 512.883 406.978 511.078 412.41C503.025 421.59 494.972 430.768 486.919 439.947C481.431 442.854 475.648 443.709 469.574 442.509C450.505 427.5 432.541 411.063 415.68 393.199C415.467 384.43 414.848 375.891 413.822 367.583C414.187 364.72 413.773 362.159 412.583 359.898C412.583 358.191 412.583 356.483 412.583 354.775C412.476 353.5 412.89 352.433 413.822 351.573C424.379 344.428 433.876 336.103 442.317 326.598Z" fill="#1F123F"/>
</svg>
