<svg width="357" height="386" viewBox="0 0 357 386" fill="none" xmlns="http://www.w3.org/2000/svg">
<path fill-rule="evenodd" clip-rule="evenodd" d="M184.244 79.2598C191.835 82.5371 199.494 85.8209 207.219 89.1113C206.492 91.7802 205.313 94.1687 203.684 96.276C203.834 95.0921 203.54 94.0469 202.801 93.1415C142.571 69.363 82.4819 45.3314 22.5332 21.0463C22.9686 16.8272 25.1777 14.439 29.1607 13.8816C42.6119 17.4019 56.0141 21.1336 69.3674 25.0765C70.8054 27.5431 72.1309 30.0806 73.3438 32.689C110.071 48.8274 147.038 64.3511 184.244 79.2598Z" fill="#CCE1E4"/>
<path fill-rule="evenodd" clip-rule="evenodd" d="M239.031 29.1067C236.659 31.5156 234.597 34.2023 232.846 37.167C232.271 37.4392 231.682 37.7378 231.078 38.0626C230.237 36.6786 229.943 35.186 230.195 33.5846C231.904 29.3365 234.851 27.8438 239.031 29.1067Z" fill="#75FDE4"/>
<path fill-rule="evenodd" clip-rule="evenodd" d="M244.333 36.2714C243.744 36.2714 243.45 36.5699 243.45 37.167C242.767 36.0981 241.884 35.2025 240.799 34.4802C239.826 33.4966 238.648 33.3473 237.264 34.0324C236.372 35.9774 234.899 37.0223 232.846 37.167C234.597 34.2023 236.659 31.5155 239.031 29.1066C241.755 27.7016 244.258 28.0001 246.542 30.0022C247.283 32.6717 246.547 34.7615 244.333 36.2714Z" fill="#004466"/>
<path fill-rule="evenodd" clip-rule="evenodd" d="M240.798 34.4802C241.883 35.2025 242.767 36.0981 243.449 37.167C243.449 38.0626 243.449 38.9582 243.449 39.8538C241.093 39.8538 238.737 39.8538 236.38 39.8538C235.955 36.4066 237.428 34.6154 240.798 34.4802Z" fill="#F06468"/>
<path fill-rule="evenodd" clip-rule="evenodd" d="M230.194 33.5847C229.943 35.186 230.237 36.6787 231.078 38.0627C231.682 37.7378 232.271 37.4393 232.845 37.1671C232.845 38.6598 232.845 40.1524 232.845 41.645C232.02 42.6012 231.725 43.7954 231.962 45.2274C231.389 43.4378 230.653 41.6467 229.753 39.8539C229.049 37.5804 229.197 35.4907 230.194 33.5847Z" fill="#004466"/>
<path fill-rule="evenodd" clip-rule="evenodd" d="M240.799 34.4803C237.428 34.6155 235.955 36.4066 236.38 39.8539C238.737 39.8539 241.093 39.8539 243.45 39.8539C243.45 38.9583 243.45 38.0627 243.45 37.1671C243.45 36.57 243.744 36.2715 244.333 36.2715C244.333 37.7642 244.333 39.2568 244.333 40.7494C240.933 40.5163 237.693 41.1134 234.613 42.5406C233.804 42.5024 233.214 42.2038 232.846 41.645C232.846 40.1524 232.846 38.6598 232.846 37.1671C234.899 37.0224 236.372 35.9776 237.264 34.0325C238.648 33.3474 239.826 33.4967 240.799 34.4803Z" fill="#C36175"/>
<path fill-rule="evenodd" clip-rule="evenodd" d="M244.333 40.7495C245.511 43.4363 245.511 46.1231 244.333 48.8099C241.253 48.6265 240.369 49.8206 241.682 52.3922C241.093 52.3922 240.504 52.3922 239.915 52.3922C236.736 50.667 234.085 48.2788 231.962 45.2275C231.725 43.7954 232.02 42.6013 232.846 41.6451C233.214 42.2039 233.803 42.5025 234.613 42.5407C237.692 41.1135 240.933 40.5164 244.333 40.7495Z" fill="#371D54"/>
<path fill-rule="evenodd" clip-rule="evenodd" d="M239.915 41.645C241.093 41.645 242.272 41.645 243.45 41.645C243.45 42.5406 243.45 43.4362 243.45 44.3318C241.264 44.7006 240.086 43.805 239.915 41.645Z" fill="#C0BBDE"/>
<path fill-rule="evenodd" clip-rule="evenodd" d="M258.471 49.7053C261.71 49.7069 264.361 50.9011 266.424 53.2877C267.286 55.3433 268.464 57.1344 269.959 58.6612C269.959 59.2583 269.959 59.8553 269.959 60.4524C268.251 59.4299 266.925 57.9373 265.982 55.9745C265.688 56.273 265.393 56.5716 265.099 56.8701C264.076 52.9926 261.572 50.9028 257.587 50.6009C257.587 52.0936 257.587 53.5862 257.587 55.0789C256.288 53.6 255.11 51.958 254.053 50.1531C255.497 49.7111 256.97 49.5618 258.471 49.7053Z" fill="#3F3068"/>
<path fill-rule="evenodd" clip-rule="evenodd" d="M226.66 51.4964C226.66 53.8847 226.66 56.2729 226.66 58.6612C225.805 56.7738 225.509 54.6841 225.776 52.392C223.42 52.6905 221.064 52.9891 218.707 53.2876C221.042 52.1176 223.545 51.222 226.218 50.6008C226.571 50.8054 226.717 51.104 226.66 51.4964Z" fill="#7C71BF"/>
<path opacity="0.997" fill-rule="evenodd" clip-rule="evenodd" d="M217.823 53.2876C217.991 57.6488 218.58 61.8282 219.591 65.8259C219.885 67.02 220.18 68.2142 220.474 69.4082C218.273 67.9147 216.358 68.2132 214.731 70.3038C212.213 76.596 209.71 82.8651 207.219 89.1113C199.494 85.8209 191.836 82.5371 184.244 79.2598C189.291 73.088 194.593 66.9681 200.15 60.9001C205.718 57.5768 211.609 55.0392 217.823 53.2876Z" fill="#FCF4F4"/>
<path fill-rule="evenodd" clip-rule="evenodd" d="M231.962 45.2273C234.085 48.2786 236.736 50.6669 239.915 52.392C240.504 52.392 241.093 52.392 241.682 52.392C243.397 53.7449 243.839 55.5361 243.007 57.7656C239.076 59.136 235.395 58.539 231.962 55.9744C231.07 53.3122 231.07 50.6254 231.962 47.9141C231.962 47.0185 231.962 46.1229 231.962 45.2273Z" fill="#E67578"/>
<path fill-rule="evenodd" clip-rule="evenodd" d="M269.959 60.4523C273.33 70.4981 275.098 80.9467 275.261 91.798C269.524 89.9567 263.927 88.1656 258.472 86.4245C259.649 86.4245 260.828 86.4245 262.006 86.4245C262.224 83.3448 261.93 80.3596 261.123 77.4686C261.123 76.573 261.123 75.6774 261.123 74.7818C262.596 74.7818 264.068 74.7818 265.541 74.7818C265.75 73.6256 265.456 72.73 264.657 72.095C263.329 65.9609 260.972 60.2889 257.588 55.0788C257.588 53.5861 257.588 52.0935 257.588 50.6008C261.572 50.9027 264.077 52.9925 265.099 56.87C265.393 56.5715 265.688 56.2729 265.983 55.9744C266.926 57.9372 268.251 59.4298 269.959 60.4523Z" fill="#004466"/>
<path fill-rule="evenodd" clip-rule="evenodd" d="M231.961 47.9141C231.07 50.6254 231.07 53.3122 231.961 55.9744C235.394 58.539 239.076 59.136 243.007 57.7656C243.838 55.5361 243.397 53.7449 241.681 52.392C240.368 49.8204 241.252 48.6263 244.332 48.8097C249.216 47.7524 253.928 48.0509 258.471 49.7052C256.97 49.5618 255.497 49.7111 254.053 50.153C255.11 51.9579 256.288 53.5999 257.587 55.0788C260.972 60.2889 263.329 65.961 264.657 72.095C259.562 73.5704 254.26 74.466 248.751 74.7818C242.493 75.1922 236.307 76.0878 230.194 77.4686C229.124 71.0653 227.945 64.7961 226.659 58.6612C226.659 56.2729 226.659 53.8847 226.659 51.4964C229.037 51.1083 230.804 49.9142 231.961 47.9141Z" fill="#FBF1F2"/>
<path fill-rule="evenodd" clip-rule="evenodd" d="M239.915 52.3921C240.198 53.7786 241.082 54.3757 242.566 54.1833C242.566 55.0789 242.566 55.9745 242.566 56.8701C239.62 56.5716 236.674 56.273 233.729 55.9745C233.43 53.7252 233.43 51.6355 233.729 49.7053C235.272 51.8136 237.333 52.7092 239.915 52.3921Z" fill="#FA6668"/>
<path fill-rule="evenodd" clip-rule="evenodd" d="M276.145 92.6936C275.555 92.6936 275.261 92.3954 275.261 91.798C275.097 80.9467 273.33 70.4981 269.959 60.4523C269.959 59.8552 269.959 59.2582 269.959 58.6611C270.654 57.2244 271.832 56.6273 273.494 56.87C273.494 57.7655 273.494 58.6611 273.494 59.5567C275.457 59.2684 277.078 59.8654 278.354 61.3479C279.135 64.1757 280.165 66.8624 281.447 69.4082C280.364 73.7263 280.364 78.055 281.447 82.3943C281.413 85.8765 280.383 86.3243 278.354 83.7377C277.957 86.0606 278.841 87.8518 281.005 89.1113C281.594 90.6042 281.594 92.0963 281.005 93.5892C279.503 92.7778 277.883 92.4796 276.145 92.6936Z" fill="#FCF4F3"/>
<path fill-rule="evenodd" clip-rule="evenodd" d="M264.657 72.0952C265.456 72.7302 265.75 73.6258 265.541 74.782C264.068 74.782 262.595 74.782 261.122 74.782C256.998 74.782 252.875 74.782 248.751 74.782C254.261 74.4662 259.563 73.5706 264.657 72.0952Z" fill="#857CB2"/>
<path fill-rule="evenodd" clip-rule="evenodd" d="M226.66 58.6612C227.946 64.7962 229.124 71.0654 230.195 77.4687C236.308 76.0878 242.493 75.1922 248.751 74.7819C252.876 74.7819 256.999 74.7819 261.123 74.7819C261.123 75.6775 261.123 76.5731 261.123 77.4687C255.282 74.8251 249.685 75.2729 244.333 78.812C246.564 79.1916 248.332 80.2365 249.635 81.9466C248.052 82.0666 246.579 81.7681 245.217 81.051C244.915 80.3003 244.326 80.0017 243.449 80.1554C243.351 79.6025 243.057 79.1547 242.566 78.812C236.674 78.5135 230.784 78.215 224.893 77.9165C224.412 77.2741 223.822 76.8263 223.125 76.5731C223.719 73.4905 222.835 71.1023 220.474 69.4083C220.18 68.2142 219.885 67.0201 219.591 65.826C218.58 61.8283 217.991 57.6489 217.823 53.2877C218.118 53.2877 218.413 53.2877 218.707 53.2877C221.064 52.9892 223.419 52.6906 225.776 52.3921C225.509 54.6842 225.804 56.7739 226.66 58.6612Z" fill="#067DB8"/>
<path fill-rule="evenodd" clip-rule="evenodd" d="M219.591 65.8259C219.591 61.945 219.591 58.0641 219.591 54.1832C221.329 54.3976 222.95 54.0991 224.451 53.2876C225.941 61.3835 227.266 69.4438 228.427 77.4686C227.389 77.6647 226.505 77.3662 225.776 76.573C225.185 73.4308 224.154 70.4455 222.684 67.6171C221.963 66.4324 220.931 65.8354 219.591 65.8259Z" fill="#067DB8"/>
<path fill-rule="evenodd" clip-rule="evenodd" d="M266.425 53.2876C270.208 53.8573 273.742 55.2007 277.029 57.3178C294.694 68.0538 309.569 81.9355 321.654 98.9628C324.563 103.454 325.888 108.23 325.63 113.292C314.043 109.38 302.849 104.604 292.051 98.9628C289.402 90.4618 286.309 82.1033 282.773 73.8862C282.331 81.0448 282.184 88.2095 282.331 95.3804C279.983 94.9908 277.92 94.0952 276.145 92.6936C277.883 92.4796 279.504 92.7778 281.005 93.5892C281.595 92.0963 281.595 90.6042 281.005 89.1113C278.841 87.8518 277.957 86.0606 278.354 83.7377C280.383 86.3243 281.414 85.8765 281.447 82.3943C280.365 78.055 280.365 73.7263 281.447 69.4082C280.166 66.8624 279.135 64.1757 278.354 61.3479C277.078 59.8654 275.458 59.2684 273.494 59.5567C273.494 58.6611 273.494 57.7656 273.494 56.87C271.833 56.6273 270.655 57.2244 269.959 58.6611C268.464 57.1343 267.286 55.3432 266.425 53.2876Z" fill="#FCE6E7"/>
<path fill-rule="evenodd" clip-rule="evenodd" d="M223.125 76.573C223.822 76.8263 224.412 77.2741 224.892 77.9164C230.784 78.2149 236.674 78.5135 242.566 78.812C243.057 79.1546 243.351 79.6024 243.449 80.1554C238.164 79.2124 232.862 79.2124 227.543 80.1554C226.563 79.4478 225.385 79.0001 224.009 78.812C223.344 78.2112 223.049 77.4649 223.125 76.573Z" fill="#067DB8"/>
<path fill-rule="evenodd" clip-rule="evenodd" d="M22.5338 21.0464C82.4825 45.3314 142.572 69.3631 202.801 93.1415C203.541 94.047 203.835 95.0921 203.685 96.2761C203.391 97.4699 203.095 98.6646 202.801 99.8585C201.917 99.8585 201.034 99.8585 200.15 99.8585C192.261 96.2913 184.308 92.7089 176.291 89.1114C141.154 74.9009 106.102 60.4221 71.1353 45.6752C67.3469 45.0499 63.8123 45.7962 60.5313 47.9141C47.3631 41.3177 34.55 34.1529 22.092 26.4199C21.3947 24.4392 21.5419 22.6481 22.5338 21.0464Z" fill="#739EA4"/>
<path fill-rule="evenodd" clip-rule="evenodd" d="M249.635 81.9465C252.936 81.9833 255.587 83.1773 257.588 85.5289C254.721 84.6665 252.07 83.4724 249.635 81.9465Z" fill="#843C9B"/>
<path fill-rule="evenodd" clip-rule="evenodd" d="M245.217 81.051C246.579 81.7681 248.051 82.0666 249.635 81.9466C252.07 83.4725 254.721 84.6666 257.588 85.529C258.177 85.529 258.472 85.8275 258.472 86.4246C263.927 88.1657 269.524 89.9568 275.261 91.7981C275.261 92.3955 275.555 92.6937 276.145 92.6937C277.92 94.0953 279.983 94.9909 282.33 95.3805C285.31 96.9442 288.403 98.4363 291.609 99.8585C291.961 99.6543 292.108 99.3551 292.051 98.9629C302.849 104.604 314.042 109.38 325.63 113.292C329.864 114.99 333.988 116.93 338.001 119.114C340.025 120.705 341.498 122.646 342.42 124.935C343.459 131.201 343.459 137.47 342.42 143.742C340.413 148.393 338.94 153.169 338.001 158.072C337.121 157.995 336.385 158.294 335.792 158.968C314.501 150.943 293.146 143.031 271.726 135.234C265.206 132.511 258.873 129.376 252.728 125.831C251.346 126.269 250.02 126.567 248.751 126.726C248.989 124.999 248.547 123.507 247.426 122.248C243.736 124.335 239.76 125.231 235.496 124.935C235.773 122.475 235.479 120.086 234.613 117.77C233.71 119.025 232.827 120.22 231.962 121.353C231.579 118.858 230.401 116.768 228.427 115.084C226.471 117.254 225.587 116.657 225.776 113.292C224.47 113.527 223.292 113.229 222.241 112.397C221.047 110.007 220.457 107.47 220.474 104.784C222.09 97.4726 224.447 90.4574 227.543 83.7378C228.556 83.1603 229.44 82.4139 230.194 81.4988C235.193 81.0516 240.201 80.9023 245.217 81.051Z" fill="#783CC8"/>
<path fill-rule="evenodd" clip-rule="evenodd" d="M261.123 77.4686C261.93 80.3596 262.225 83.3449 262.006 86.4246C260.828 86.4246 259.65 86.4246 258.472 86.4246C258.472 85.8275 258.177 85.529 257.588 85.529C255.587 83.1774 252.936 81.9833 249.635 81.9466C248.332 80.2365 246.564 79.1916 244.333 78.812C249.684 75.2729 255.282 74.8251 261.123 77.4686Z" fill="#067DB8"/>
<path fill-rule="evenodd" clip-rule="evenodd" d="M220.474 69.4084C221.261 71.4521 221.407 73.5418 220.916 75.6776C217.915 81.9625 214.822 88.2316 211.638 94.485C211.25 94.5432 210.955 94.3946 210.754 94.0372C212.887 91.5761 213.623 88.7398 212.963 85.5291C212.374 86.7232 211.785 86.7232 211.196 85.5291C207.218 93.705 203.389 102.064 199.708 110.606C198.941 113.279 198.647 115.966 198.824 118.666C199.097 119.39 199.538 119.987 200.15 120.457C201.049 119.837 201.933 119.24 202.801 118.666C202.801 119.86 202.801 121.055 202.801 122.248C201.328 122.248 199.856 122.248 198.383 122.248C197.403 122.197 196.519 121.899 195.732 121.353C195.588 119.537 195.736 117.746 196.173 115.979C198.302 110.547 200.511 105.174 202.801 99.8586C203.095 98.6647 203.39 97.47 203.685 96.2762C205.313 94.1689 206.492 91.7803 207.219 89.1115C209.709 82.8653 212.213 76.5962 214.73 70.304C216.358 68.2134 218.273 67.9149 220.474 69.4084Z" fill="#B176FF"/>
<path fill-rule="evenodd" clip-rule="evenodd" d="M243.45 80.1555C244.326 80.0018 244.915 80.3004 245.217 81.0511C240.201 80.9023 235.194 81.0516 230.195 81.4989C229.44 82.4139 228.556 83.1603 227.544 83.7378C224.447 90.4575 222.091 97.4726 220.474 104.784C220.458 107.47 221.047 110.007 222.242 112.397C223.292 113.229 224.47 113.527 225.776 113.292C225.587 116.657 226.471 117.254 228.427 115.084C230.401 116.768 231.579 118.858 231.962 121.353C232.114 122.241 231.819 122.838 231.078 123.144C231.078 121.95 231.078 120.755 231.078 119.562C226.944 119.71 222.82 119.561 218.707 119.114C220.652 118.18 222.714 117.433 224.893 116.875C223.125 115.681 221.358 114.486 219.591 113.292C219.072 111.704 218.778 110.063 218.707 108.367C220.109 98.3217 223.054 88.9183 227.544 80.1555C232.862 79.2125 238.164 79.2125 243.45 80.1555Z" fill="#4B1C8A"/>
<path fill-rule="evenodd" clip-rule="evenodd" d="M220.474 69.4084C222.836 71.1024 223.719 73.4906 223.125 76.5732C223.049 77.4651 223.345 78.2114 224.009 78.8122C225.386 79.0002 226.564 79.448 227.544 80.1555C223.054 88.9184 220.109 98.3217 218.707 108.367C218.778 110.063 219.072 111.705 219.591 113.292C221.358 114.486 223.125 115.681 224.893 116.875C222.714 117.433 220.652 118.18 218.707 119.114C222.821 119.561 226.944 119.71 231.078 119.562C231.078 120.755 231.078 121.95 231.078 123.144C230.764 124.657 229.88 125.553 228.427 125.831C223.158 126.319 218.15 125.722 213.405 124.04C209.312 119.404 205.335 119.404 201.476 124.04C200.325 123.516 199.294 122.919 198.383 122.248C199.856 122.248 201.328 122.248 202.801 122.248C202.801 121.055 202.801 119.86 202.801 118.666C205.35 112.005 208.149 105.436 211.196 98.963C211.632 97.4996 211.779 96.0066 211.638 94.485C214.822 88.2316 217.915 81.9625 220.916 75.6776C221.408 73.5418 221.261 71.4521 220.474 69.4084Z" fill="#4B1C8A"/>
<path fill-rule="evenodd" clip-rule="evenodd" d="M292.051 98.9628C292.108 99.3551 291.961 99.6542 291.609 99.8584C288.403 98.4362 285.31 96.9441 282.33 95.3804C282.184 88.2095 282.33 81.0448 282.772 73.8862C286.309 82.1033 289.401 90.4618 292.051 98.9628Z" fill="#067DB8"/>
<path fill-rule="evenodd" clip-rule="evenodd" d="M255.82 90.9025C258.956 90.8478 261.902 91.5947 264.657 93.1414C271.415 96.7704 278.338 100.203 285.423 103.441C303.551 112.518 321.372 122.37 338.885 132.995C337.494 134.008 336.021 134.158 334.466 133.443C328.728 131.278 323.131 128.89 317.677 126.278C310.041 124.615 302.972 121.63 296.469 117.322C283.659 112.468 270.994 107.393 258.471 102.097C253.933 100.51 252.312 97.3758 253.611 92.6936C254.49 92.1867 255.227 91.5894 255.82 90.9025Z" fill="#B176FF"/>
<path fill-rule="evenodd" clip-rule="evenodd" d="M211.638 94.485C211.779 96.0066 211.632 97.4995 211.196 98.9629C208.149 105.436 205.35 112.005 202.801 118.666C201.933 119.24 201.05 119.836 200.15 120.457C199.539 119.987 199.097 119.39 198.825 118.666C198.647 115.966 198.941 113.279 199.708 110.606C203.39 102.063 207.218 93.7049 211.196 85.5291C211.785 86.7231 212.374 86.7231 212.963 85.5291C213.623 88.7397 212.887 91.5761 210.754 94.0372C210.955 94.3945 211.251 94.5432 211.638 94.485Z" fill="#B176FF"/>
<path opacity="0.994" fill-rule="evenodd" clip-rule="evenodd" d="M176.291 89.1113C184.308 92.7089 192.26 96.2913 200.15 99.8584C198.489 101.11 197.016 102.602 195.732 104.336C194.312 107.717 192.692 111.001 190.871 114.188C189.978 114.938 188.947 115.236 187.779 115.083C187.917 116.313 187.77 117.508 187.337 118.666C183.53 121.923 179.7 125.207 175.849 128.517C173.727 131.642 172.402 135.076 171.873 138.817C177.832 136.265 184.018 134.026 190.43 132.1C190.513 130.052 191.103 128.261 192.197 126.726C192.197 127.92 192.197 129.115 192.197 130.309C198.329 128.68 204.515 127.187 210.754 125.831C212.106 125.705 212.989 125.108 213.405 124.039C218.15 125.722 223.158 126.319 228.427 125.831C230.569 128.077 232.041 130.764 232.845 133.891C232.057 136.391 230.29 137.585 227.543 137.473C227.775 136.15 227.481 134.956 226.66 133.891C218.928 141.336 211.27 148.948 203.684 156.729C190.298 161.828 176.454 165.112 162.152 166.58C160.575 167.622 158.808 168.219 156.85 168.371C157.342 168.714 157.636 169.162 157.734 169.715C154.321 168.797 151.818 166.708 150.223 163.445C147.184 146.504 150.129 130.682 159.059 115.979C164.602 106.82 170.346 97.8639 176.291 89.1113Z" fill="#FDF4F3"/>
<path fill-rule="evenodd" clip-rule="evenodd" d="M248.751 107.919C252.924 108.983 257.048 110.326 261.122 111.949C276.541 119.641 292.153 126.806 307.956 133.443C317.176 138.292 326.308 143.218 335.35 148.22C335.056 148.519 334.76 148.818 334.466 149.116C305.602 139.783 277.031 129.484 248.751 118.218C244.114 114.675 244.114 111.242 248.751 107.919Z" fill="#B176FF"/>
<path fill-rule="evenodd" clip-rule="evenodd" d="M248.751 126.726C248.434 128.402 247.55 129.745 246.1 130.756C242.33 133.274 238.206 134.617 233.729 134.787C233.729 134.189 233.434 133.891 232.845 133.891C232.041 130.764 230.569 128.077 228.427 125.831C229.88 125.553 230.763 124.657 231.078 123.144C231.818 122.838 232.113 122.241 231.961 121.353C232.827 120.22 233.71 119.025 234.612 117.77C235.478 120.086 235.773 122.475 235.496 124.935C239.76 125.231 243.736 124.335 247.426 122.248C248.547 123.507 248.989 124.999 248.751 126.726Z" fill="#F66162"/>
<path fill-rule="evenodd" clip-rule="evenodd" d="M338.001 158.072C336.028 162.461 333.082 166.044 329.164 168.819C328.87 168.819 328.575 168.819 328.28 168.819C328.356 167.927 328.061 167.181 327.397 166.58C325.95 166.042 324.478 165.594 322.979 165.237C321.497 165.852 320.024 166.449 318.56 167.028C317.079 167.639 316.49 168.834 316.793 170.61C316.203 170.61 315.615 170.61 315.026 170.61C314.731 170.61 314.436 170.61 314.142 170.61C314.481 168.435 315.071 166.344 315.909 164.341C313.595 164.101 311.386 164.399 309.282 165.237C307.423 163.622 306.687 161.532 307.073 158.967C306.189 158.967 305.305 158.967 304.422 158.967C304.422 157.475 304.422 155.982 304.422 154.49C301.771 154.49 299.12 154.49 296.469 154.49C295.98 152.305 295.98 150.215 296.469 148.22C294.926 147.419 293.305 146.821 291.608 146.429C290.517 147.428 289.486 147.428 288.516 146.429C288.221 147.027 287.926 147.623 287.632 148.22C286.454 147.623 285.275 147.027 284.097 146.429C283.424 147.439 282.835 148.485 282.33 149.564C279.813 150.633 277.31 151.678 274.819 152.698C269.921 151.102 265.355 148.863 261.122 145.981C261.711 145.683 262.3 145.384 262.889 145.086C261.388 144.734 260.063 145.182 258.913 146.429C257.01 145.736 255.095 145.139 253.169 144.638C252.875 144.638 252.58 144.638 252.285 144.638C252.361 143.746 252.066 143 251.402 142.399C247.48 140.526 243.356 139.482 239.03 139.264C237.899 137.983 236.426 137.385 234.612 137.473C234.073 136.675 233.779 135.78 233.729 134.786C238.206 134.617 242.33 133.274 246.1 130.756C247.55 129.745 248.434 128.402 248.751 126.726C250.02 126.567 251.345 126.269 252.727 125.831C258.872 129.376 265.205 132.511 271.726 135.234C293.146 143.031 314.501 150.943 335.792 158.967C336.385 158.294 337.121 157.995 338.001 158.072Z" fill="#4B1C8A"/>
<path fill-rule="evenodd" clip-rule="evenodd" d="M200.149 99.8584C201.033 99.8584 201.917 99.8584 202.8 99.8584C200.511 105.174 198.302 110.547 196.173 115.979C195.735 117.746 195.588 119.537 195.731 121.353C194.553 123.144 193.374 124.935 192.196 126.726C191.102 128.261 190.513 130.052 190.429 132.1C184.017 134.026 177.831 136.265 171.872 138.817C172.401 135.076 173.727 131.642 175.849 128.517C179.7 125.207 183.529 121.923 187.336 118.666C187.769 117.508 187.917 116.313 187.778 115.083C188.946 115.236 189.977 114.937 190.871 114.188C192.691 111.001 194.312 107.717 195.731 104.336C197.016 102.602 198.489 101.11 200.149 99.8584Z" fill="#F9E5E5"/>
<path fill-rule="evenodd" clip-rule="evenodd" d="M239.031 139.264C243.357 139.482 247.481 140.526 251.403 142.399C252.067 143 252.362 143.746 252.286 144.638C251.992 144.638 251.697 144.638 251.403 144.638C247.425 142.319 243.301 140.528 239.031 139.264Z" fill="#311761"/>
<path fill-rule="evenodd" clip-rule="evenodd" d="M234.612 137.473C236.427 137.386 237.9 137.983 239.031 139.264C243.301 140.528 247.425 142.319 251.402 144.638C254.053 147.623 256.704 150.609 259.355 153.594C262.266 157.593 265.359 161.473 268.633 165.237C269.271 167.709 269.124 170.097 268.192 172.401C264.642 172.193 261.107 172.193 257.588 172.401C257.814 170.241 256.93 168.748 254.937 167.923C253.513 168.658 252.924 169.852 253.169 171.506C251.108 171.506 249.045 171.506 246.984 171.506C246.984 176.282 246.984 181.059 246.984 185.835C242.564 185.855 242.269 187.049 246.1 189.418C246.921 190.482 247.215 191.676 246.984 193C241.845 192.535 239.194 194.924 239.031 200.165C243.53 200.162 243.53 200.908 239.031 202.404C237.388 203.799 236.063 205.441 235.054 207.329C233.91 205.443 232.879 203.204 231.961 200.612C230.843 200.336 229.811 199.888 228.869 199.269C225.573 200.129 222.185 200.427 218.706 200.165C218.706 204.941 218.706 209.718 218.706 214.494C216.645 214.494 214.582 214.494 212.521 214.494C212.813 210.567 211.635 207.283 208.986 204.643C208.692 191.195 208.987 177.761 209.87 164.341C212.955 163.391 215.311 161.6 216.939 158.967C218.699 158.813 220.172 159.411 221.357 160.759C221.009 159.036 221.599 157.394 223.125 155.833C225.653 155.86 227.715 155.114 229.31 153.594C229.167 151.779 229.315 149.987 229.752 148.22C232.576 145.184 234.196 141.602 234.612 137.473Z" fill="#067DB8"/>
<path fill-rule="evenodd" clip-rule="evenodd" d="M342.419 124.935C344.415 127.658 345.593 130.792 345.954 134.339C344.774 142.854 342.123 150.765 338.001 158.072C338.939 153.169 340.412 148.393 342.419 143.742C343.458 137.47 343.458 131.201 342.419 124.935Z" fill="#B176FF"/>
<path fill-rule="evenodd" clip-rule="evenodd" d="M253.17 144.638C255.095 145.139 257.01 145.736 258.914 146.429C260.063 145.182 261.389 144.734 262.89 145.086C262.301 145.384 261.712 145.683 261.123 145.981C265.356 148.863 269.922 151.102 274.82 152.698C277.311 151.678 279.814 150.633 282.331 149.564C282.835 148.485 283.425 147.439 284.098 146.429C285.276 147.026 286.455 147.623 287.633 148.22C287.927 147.623 288.222 147.026 288.516 146.429C289.487 147.428 290.518 147.428 291.609 146.429C293.306 146.821 294.927 147.419 296.469 148.22C295.981 150.215 295.981 152.305 296.469 154.489C299.12 154.489 301.771 154.489 304.422 154.489C304.422 155.982 304.422 157.474 304.422 158.967C305.306 158.967 306.19 158.967 307.073 158.967C306.688 161.532 307.424 163.622 309.283 165.237C311.387 164.399 313.596 164.101 315.91 164.341C315.071 166.344 314.482 168.435 314.143 170.61C304.596 167.085 295.17 163.204 285.865 158.967C285.16 159.377 284.866 159.974 284.982 160.759C284.392 159.863 283.804 158.967 283.214 158.072C273.052 153.86 263.037 149.382 253.17 144.638Z" fill="#4B1C8A"/>
<path fill-rule="evenodd" clip-rule="evenodd" d="M251.402 144.638C251.697 144.638 251.992 144.638 252.286 144.638C252.58 144.638 252.875 144.638 253.17 144.638C263.037 149.382 273.052 153.86 283.214 158.072C281.883 161.134 280.999 164.417 280.563 167.923C278.097 166.544 275.888 166.843 273.936 168.819C273.716 167.812 273.274 166.917 272.61 166.132C271.729 172.673 271.434 179.241 271.727 185.835C270.341 178.573 269.604 171.11 269.517 163.445C266.246 159.979 262.858 156.695 259.355 153.594C256.704 150.609 254.053 147.623 251.402 144.638Z" fill="#004466"/>
<path fill-rule="evenodd" clip-rule="evenodd" d="M229.311 153.594C227.716 155.114 225.653 155.86 223.125 155.833C221.599 157.394 221.01 159.036 221.358 160.759C220.172 159.411 218.7 158.814 216.939 158.968C218.805 157.861 220.572 156.517 222.241 154.937C224.675 154.694 227.032 154.246 229.311 153.594Z" fill="#84FEE8"/>
<path fill-rule="evenodd" clip-rule="evenodd" d="M232.846 133.891C233.435 133.891 233.729 134.189 233.729 134.786C233.78 135.78 234.074 136.675 234.613 137.473C234.197 141.602 232.577 145.184 229.753 148.22C229.315 149.987 229.168 151.779 229.311 153.594C227.032 154.246 224.675 154.694 222.242 154.937C220.572 156.517 218.805 157.86 216.94 158.967C214.041 160.436 211.095 161.929 208.103 163.445C207.398 163.855 207.104 164.452 207.219 165.237C196.207 169.108 184.866 171.497 173.198 172.401C167.874 171.825 162.72 170.93 157.734 169.715C157.636 169.162 157.342 168.714 156.851 168.371C158.808 168.219 160.575 167.622 162.153 166.58C176.455 165.112 190.298 161.828 203.685 156.728C211.27 148.948 218.928 141.336 226.66 133.891C227.481 134.956 227.775 136.15 227.544 137.473C230.29 137.585 232.057 136.391 232.846 133.891Z" fill="#FCE7E8"/>
<path opacity="0.251" fill-rule="evenodd" clip-rule="evenodd" d="M315.026 170.61C315.616 170.61 316.204 170.61 316.794 170.61C316.039 175.7 318.102 178.087 322.979 177.775C321.399 178.78 319.632 178.929 317.677 178.223C316.408 175.814 315.524 173.276 315.026 170.61Z" fill="#F19298"/>
<path fill-rule="evenodd" clip-rule="evenodd" d="M328.281 168.819C327.513 170.804 327.219 172.894 327.398 175.088C325.266 174.937 323.351 175.533 321.654 176.879C320.882 176.669 320.145 176.37 319.445 175.984C318.572 173.057 318.278 170.071 318.561 167.028C320.024 166.449 321.497 165.852 322.979 165.237C324.479 165.594 325.951 166.042 327.398 166.58C328.062 167.181 328.357 167.927 328.281 168.819Z" fill="#F85F5D"/>
<path fill-rule="evenodd" clip-rule="evenodd" d="M216.94 158.968C215.312 161.6 212.955 163.391 209.87 164.341C208.988 177.762 208.692 191.195 208.987 204.643C208.987 205.538 208.987 206.434 208.987 207.329C208.692 207.329 208.397 207.329 208.103 207.329C207.323 193.315 207.029 179.285 207.219 165.237C207.104 164.452 207.398 163.855 208.103 163.445C211.095 161.929 214.041 160.436 216.94 158.968Z" fill="#84FEE8"/>
<path fill-rule="evenodd" clip-rule="evenodd" d="M259.355 153.594C262.858 156.695 266.246 159.98 269.517 163.446C269.604 171.11 270.341 178.573 271.726 185.835C271.726 186.134 271.726 186.433 271.726 186.731C272.938 195.926 273.527 205.18 273.494 214.494C272.004 206.309 270.825 197.951 269.959 189.418C269.184 193.336 266.975 196.023 263.332 197.478C262.006 197.328 261.27 196.582 261.122 195.239C262.692 193.711 264.164 192.07 265.541 190.313C261.78 189.923 257.951 189.923 254.053 190.313C252.615 185.141 254.383 181.559 259.355 179.566C260.069 179.842 260.658 180.29 261.122 180.91C259.893 181.823 258.568 182.569 257.146 183.149C256.713 184.307 256.565 185.501 256.704 186.731C259.051 186.142 261.407 185.544 263.773 184.94C265.551 185.244 267.319 185.542 269.075 185.835C269.217 184.314 269.07 182.821 268.633 181.357C264.047 183.294 261.838 181.653 262.006 176.432C262.602 173.097 263.927 172.649 265.982 175.088C267.14 174.524 267.877 173.628 268.192 172.401C269.124 170.097 269.271 167.709 268.633 165.237C265.359 161.473 262.266 157.593 259.355 153.594Z" fill="#067DB8"/>
<path fill-rule="evenodd" clip-rule="evenodd" d="M318.561 167.028C318.278 170.071 318.572 173.057 319.444 175.984C320.145 176.37 320.882 176.669 321.653 176.879C323.351 175.533 325.266 174.937 327.397 175.088C327.219 172.894 327.513 170.805 328.281 168.819C328.575 168.819 328.87 168.819 329.165 168.819C330.106 174.108 328.043 177.093 322.979 177.775C318.101 178.087 316.039 175.7 316.793 170.61C316.49 168.834 317.08 167.64 318.561 167.028Z" fill="#EC686D"/>
<path fill-rule="evenodd" clip-rule="evenodd" d="M288.516 200.165C288.516 201.06 288.516 201.956 288.516 202.851C287.537 224.745 287.537 246.538 288.516 268.23C287.837 267.546 287.395 266.651 287.19 265.543C286.133 270.844 285.545 276.217 285.423 281.664C284.834 284.052 284.245 284.052 283.656 281.664C283.715 286.369 283.273 291.145 282.33 295.993C280.464 298.289 280.17 300.827 281.446 303.606C280.033 307.137 279.444 310.868 279.679 314.8C279.679 315.099 279.679 315.398 279.679 315.696C279.041 315.322 278.599 314.725 278.354 313.905C277.565 314.989 276.828 314.989 276.144 313.905C275.567 312.458 275.125 310.965 274.819 309.427C273.935 312.114 273.052 314.8 272.168 317.487C270.266 314.68 268.794 311.695 267.75 308.531C266.889 310.661 266.3 310.362 265.982 307.636C266.238 310.956 266.09 314.24 265.541 317.487C264.835 316.074 264.394 314.582 264.215 313.009C263.589 313.798 262.852 314.395 262.006 314.8C268.716 294.983 273.576 274.683 276.586 253.9C277.286 240.508 276.255 227.372 273.493 214.494C273.527 205.18 272.938 195.926 271.726 186.731C275.621 187.123 277.094 185.332 276.144 181.357C277.815 181.175 279.14 181.772 280.121 183.148C280.446 181.886 281.182 180.99 282.33 180.462C283.2 183.974 284.083 187.706 284.981 191.657C283.844 194.455 283.844 197.291 284.981 200.165C285.704 197.83 286.146 195.441 286.307 193C286.601 196.881 286.896 200.762 287.19 204.643C287.365 202.957 287.807 201.465 288.516 200.165Z" fill="#004466"/>
<path fill-rule="evenodd" clip-rule="evenodd" d="M283.214 158.072C283.803 158.968 284.392 159.863 284.981 160.759C286.636 173.841 287.815 186.976 288.516 200.165C287.807 201.465 287.365 202.957 287.191 204.643C286.896 200.762 286.601 196.881 286.307 193C286.146 195.441 285.704 197.83 284.981 200.165C283.844 197.291 283.844 194.455 284.981 191.657C284.084 187.706 283.2 183.974 282.33 180.462C281.182 180.99 280.446 181.886 280.121 183.149C279.14 181.772 277.815 181.176 276.145 181.357C277.095 185.332 275.622 187.123 271.726 186.731C271.726 186.433 271.726 186.134 271.726 185.835C271.434 179.241 271.729 172.673 272.61 166.132C273.274 166.917 273.716 167.812 273.936 168.819C275.888 166.843 278.097 166.544 280.563 167.924C280.999 164.417 281.882 161.134 283.214 158.072Z" fill="#004466"/>
<path fill-rule="evenodd" clip-rule="evenodd" d="M268.192 172.401C267.877 173.628 267.14 174.524 265.983 175.088C263.927 172.649 262.602 173.097 262.006 176.431C261.838 181.653 264.047 183.294 268.634 181.357C269.07 182.821 269.217 184.314 269.075 185.835C267.319 185.542 265.551 185.244 263.773 184.94C261.407 185.544 259.051 186.141 256.704 186.731C256.565 185.501 256.713 184.306 257.146 183.148C258.568 182.569 259.893 181.823 261.122 180.909C260.659 180.29 260.069 179.842 259.355 179.566C254.383 181.559 252.615 185.141 254.053 190.313C257.951 189.923 261.78 189.923 265.541 190.313C264.164 192.069 262.692 193.711 261.122 195.239C261.27 196.582 262.006 197.328 263.332 197.478C266.975 196.023 269.184 193.336 269.959 189.418C270.825 197.951 272.004 206.309 273.494 214.494C276.255 227.372 277.286 240.507 276.587 253.9C273.576 274.683 268.716 294.983 262.006 314.8C255.623 324.655 251.499 335.403 249.635 347.042C249.045 347.042 248.751 347.34 248.751 347.937C247.611 347.438 246.875 346.542 246.542 345.25C245.813 337.97 246.255 330.805 247.868 323.756C248.413 323.657 248.855 323.359 249.193 322.861C249.282 319.995 249.872 317.308 250.96 314.8C251.4 311.83 251.548 308.845 251.402 305.844C252.034 299.655 253.213 293.685 254.937 287.933C259.697 273.63 261.318 258.704 259.797 243.153C259.292 239.872 258.261 236.887 256.704 234.197C256.704 233.899 256.704 233.6 256.704 233.302C256.478 231.249 256.772 229.308 257.588 227.48C256.503 226.783 255.619 225.887 254.937 224.793C253.561 220.785 252.235 216.755 250.96 212.703C250.367 212.029 249.631 211.73 248.751 211.807C248.751 211.509 248.751 211.21 248.751 210.912C248.449 210.161 247.86 209.862 246.984 210.016C246.165 206.355 244.102 204.116 240.798 203.299C240.02 203.933 239.431 204.68 239.031 205.538C237.356 209.016 236.326 212.897 235.938 217.181C235.093 216.215 234.357 215.17 233.729 214.046C234.882 211.051 234.145 208.513 231.52 206.434C231.076 209.132 230.634 211.819 230.194 214.494C229.265 214.361 228.381 214.509 227.543 214.942C225.529 217.887 223.026 220.126 220.032 221.659C218.137 221.752 216.516 221.155 215.172 219.868C214.128 220.777 213.245 221.821 212.521 223.002C213.655 224.02 214.538 225.213 215.172 226.585C213.83 228.893 213.094 231.431 212.963 234.197C212.683 232.584 212.093 232.286 211.195 233.302C211.041 229.254 210.599 225.373 209.87 221.659C209.576 216.883 209.281 212.106 208.986 207.329C208.986 206.434 208.986 205.538 208.986 204.643C211.636 207.283 212.813 210.567 212.521 214.494C214.583 214.494 216.645 214.494 218.707 214.494C218.707 209.718 218.707 204.941 218.707 200.165C222.186 200.427 225.573 200.129 228.869 199.269C229.812 199.888 230.843 200.336 231.962 200.612C232.879 203.204 233.91 205.443 235.054 207.329C236.063 205.441 237.388 203.799 239.031 202.404C243.53 200.908 243.53 200.162 239.031 200.165C239.194 194.924 241.845 192.535 246.984 193C247.215 191.676 246.921 190.482 246.1 189.418C242.27 187.049 242.564 185.855 246.984 185.835C246.984 181.059 246.984 176.282 246.984 171.506C249.045 171.506 251.108 171.506 253.169 171.506C252.924 169.852 253.513 168.658 254.937 167.923C256.93 168.748 257.814 170.241 257.588 172.401C261.107 172.193 264.642 172.193 268.192 172.401Z" fill="#067DB8"/>
<path opacity="0.451" fill-rule="evenodd" clip-rule="evenodd" d="M246.984 210.016C247.861 209.862 248.449 210.161 248.752 210.912C248.162 214.494 247.574 218.077 246.984 221.659C246.984 217.778 246.984 213.897 246.984 210.016Z" fill="#8A82A6"/>
<path fill-rule="evenodd" clip-rule="evenodd" d="M208.103 207.33C208.397 207.33 208.692 207.33 208.986 207.33C209.28 212.106 209.576 216.883 209.87 221.659C209.87 224.048 209.87 226.435 209.87 228.824C208.794 221.832 208.205 214.667 208.103 207.33Z" fill="#84FEE8"/>
<path fill-rule="evenodd" clip-rule="evenodd" d="M248.751 211.807C249.631 211.73 250.367 212.03 250.96 212.703C252.235 216.755 253.561 220.785 254.937 224.794C255.619 225.887 256.502 226.783 257.588 227.48C256.772 229.308 256.478 231.249 256.704 233.302C253.725 226.343 251.074 219.178 248.751 211.807Z" fill="#84FEE8"/>
<path fill-rule="evenodd" clip-rule="evenodd" d="M239.031 205.538C237.98 215.671 237.097 225.822 236.38 235.988C235.791 237.481 235.202 238.973 234.613 240.466C234.824 236.578 235.119 232.696 235.496 228.824C232.885 229.414 230.234 229.712 227.543 229.719C227.147 238.192 223.17 240.878 215.614 237.78C214.951 238.34 214.214 238.788 213.405 239.123C216.611 239.831 218.378 241.771 218.707 244.944C216.65 245.171 214.883 244.574 213.405 243.153C212.7 243.562 212.405 244.16 212.521 244.944C212.063 241.829 211.18 238.844 209.87 235.988C209.87 233.6 209.87 231.212 209.87 228.824C209.87 226.435 209.87 224.048 209.87 221.659C210.599 225.373 211.041 229.254 211.196 233.302C212.093 232.286 212.683 232.584 212.963 234.197C213.094 231.431 213.83 228.894 215.172 226.585C214.539 225.214 213.655 224.02 212.521 223.002C213.245 221.821 214.128 220.777 215.172 219.868C216.516 221.155 218.137 221.752 220.032 221.659C223.026 220.126 225.53 217.887 227.543 214.942C228.381 214.509 229.265 214.361 230.194 214.494C230.634 211.819 231.076 209.132 231.52 206.434C234.145 208.513 234.882 211.051 233.729 214.046C234.357 215.17 235.093 216.215 235.938 217.181C236.326 212.897 237.356 209.016 239.031 205.538Z" fill="#067DB8"/>
<path fill-rule="evenodd" clip-rule="evenodd" d="M246.984 210.016C246.984 213.897 246.984 217.778 246.984 221.659C246.353 248.913 244.586 276.08 241.682 303.158C240.836 302.752 240.099 302.156 239.473 301.367C239.033 304.037 238.886 306.724 239.031 309.427C237.838 306.335 237.397 303.051 237.706 299.575C238 299.874 238.295 300.173 238.589 300.471C239.242 296.701 239.095 292.97 238.148 289.276C238.618 287.467 239.796 286.721 241.682 287.037C241.643 283.593 240.906 280.309 239.473 277.186C238.548 283.26 237.37 288.633 235.938 293.306C234.783 291.843 234.046 290.2 233.729 288.381C234.751 282.218 235.929 276.097 237.264 270.021C236.805 267.244 236.068 264.557 235.055 261.961C234.761 262.856 234.465 263.752 234.171 264.647C233.438 259.249 233.584 253.875 234.613 248.527C235.131 248.34 235.573 248.04 235.938 247.631C236.379 243.761 236.527 239.881 236.38 235.988C237.097 225.822 237.981 215.671 239.031 205.538C239.432 204.68 240.02 203.933 240.799 203.299C244.103 204.116 246.165 206.355 246.984 210.016Z" fill="#004466"/>
<path fill-rule="evenodd" clip-rule="evenodd" d="M288.517 202.852C291.758 224.657 291.758 246.45 288.517 268.23C287.537 246.539 287.537 224.745 288.517 202.852Z" fill="#004466"/>
<path fill-rule="evenodd" clip-rule="evenodd" d="M234.612 240.466C233.774 242.47 233.184 244.56 232.845 246.736C228.822 248.654 227.35 251.639 228.427 255.691C227.543 255.691 226.659 255.691 225.776 255.691C225.563 258.825 226.299 259.123 227.985 256.587C228.686 259.248 229.276 261.935 229.752 264.647C230.118 264.238 230.56 263.939 231.078 263.752C232.107 270.599 232.254 277.465 231.519 284.35C229.581 278.265 228.108 271.996 227.101 265.543C227.227 272.392 227.374 279.257 227.543 286.142C226.659 286.142 225.776 286.142 224.892 286.142C225.727 290.893 225.727 295.67 224.892 300.471C225.776 300.471 226.659 300.471 227.543 300.471C227.119 305.237 226.824 310.014 226.659 314.801C225.776 314.801 224.892 314.801 224.008 314.801C224.155 310.61 224.007 306.431 223.566 302.262C222.121 306.628 221.385 311.106 221.357 315.696C223 315.661 224.178 316.407 224.892 317.935C224.151 321.672 222.678 325.104 220.474 328.234C220.095 323.796 219.948 319.318 220.032 314.801C218.559 316.592 217.086 318.383 215.613 320.174C215.466 319.278 215.319 318.383 215.172 317.487C216.221 314.363 217.104 311.229 217.823 308.084C216.099 306.969 215.216 305.328 215.172 303.158C215.709 291.487 216.298 279.845 216.939 268.23C215.884 267.066 215 265.873 214.288 264.647C213.879 262.113 213.29 259.724 212.521 257.483C212.521 257.184 212.521 256.885 212.521 256.587C212.521 252.706 212.521 248.825 212.521 244.944C212.405 244.16 212.699 243.562 213.404 243.153C214.883 244.574 216.65 245.171 218.706 244.944C218.378 241.771 216.61 239.831 213.404 239.123C214.214 238.788 214.951 238.34 215.613 237.78C223.17 240.878 227.146 238.192 227.543 229.719C230.234 229.712 232.885 229.414 235.496 228.824C235.119 232.696 234.823 236.578 234.612 240.466Z" fill="#067DB8"/>
<path fill-rule="evenodd" clip-rule="evenodd" d="M209.87 235.988C211.18 238.843 212.063 241.828 212.521 244.944C212.521 248.825 212.521 252.706 212.521 256.587C211.355 249.88 210.471 243.013 209.87 235.988Z" fill="#C7AEE8"/>
<path fill-rule="evenodd" clip-rule="evenodd" d="M256.704 234.197C258.261 236.887 259.291 239.873 259.797 243.153C261.317 258.704 259.697 273.63 254.937 287.933C256.904 276.061 258.378 264.119 259.355 252.109C259.155 246.025 258.271 240.054 256.704 234.197Z" fill="#A1DBE8"/>
<path opacity="0.673" fill-rule="evenodd" clip-rule="evenodd" d="M212.521 257.483C213.291 259.724 213.88 262.113 214.289 264.647C215.234 272.851 215.234 280.911 214.289 288.828C214.226 278.346 213.638 267.898 212.521 257.483Z" fill="#7768BF"/>
<path fill-rule="evenodd" clip-rule="evenodd" d="M236.38 235.988C236.527 239.881 236.379 243.761 235.938 247.631C235.572 248.04 235.13 248.339 234.612 248.527C233.584 253.875 233.437 259.249 234.171 264.647C234.465 263.752 234.76 262.856 235.054 261.96C236.068 264.557 236.805 267.244 237.263 270.021C235.928 276.097 234.75 282.218 233.729 288.38C234.045 290.2 234.782 291.843 235.938 293.306C237.37 288.633 238.547 283.259 239.473 277.185C240.906 280.308 241.642 283.593 241.682 287.037C239.795 286.721 238.617 287.467 238.147 289.276C239.094 292.969 239.241 296.7 238.589 300.471C238.295 300.173 238 299.874 237.705 299.575C237.396 303.051 237.838 306.335 239.031 309.427C239.031 311.815 239.031 314.203 239.031 316.592C238.316 314.987 237.874 313.195 237.705 311.218C236.969 314.8 236.232 318.383 235.496 321.965C234.439 321.655 234.439 321.207 235.496 320.622C233.17 315.92 233.466 311.442 236.38 307.188C235.649 304.064 234.324 301.229 232.403 298.68C232.088 302.271 232.235 305.853 232.845 309.427C231.962 309.427 231.078 309.427 230.194 309.427C229.918 312.178 230.507 314.715 231.962 317.039C231.667 317.487 231.372 317.935 231.078 318.383C230.342 317.487 229.605 316.592 228.869 315.696C227.585 318.961 227.437 322.245 228.427 325.547C229.531 327.316 230.856 327.615 232.403 326.443C233.785 328.351 233.785 330.142 232.403 331.817C231.778 328.142 229.864 327.246 226.66 329.13C226.512 326.034 225.628 325.736 224.009 328.234C226.286 330.402 227.169 333.088 226.66 336.295C223.775 338.024 222.155 337.128 221.799 333.608C219.211 336.217 219.064 338.903 221.358 341.668C220.332 343.648 219.155 345.439 217.823 347.042C217.583 342.194 218.025 337.418 219.148 332.712C222.794 328.215 225.445 323.14 227.101 317.487C230.507 303.496 232.716 289.315 233.729 274.947C233.1 265.553 232.805 256.149 232.845 246.735C233.184 244.56 233.774 242.47 234.612 240.466C235.202 238.973 235.79 237.481 236.38 235.988Z" fill="#067DB8"/>
<path fill-rule="evenodd" clip-rule="evenodd" d="M288.516 268.23C287.25 284.189 284.305 299.712 279.679 314.801C279.444 310.868 280.033 307.137 281.447 303.606C280.17 300.827 280.464 298.289 282.33 295.993C283.273 291.145 283.715 286.369 283.656 281.664C284.245 284.052 284.834 284.052 285.423 281.664C285.545 276.218 286.133 270.844 287.19 265.543C287.395 266.651 287.837 267.546 288.516 268.23Z" fill="#004466"/>
<path opacity="0.855" fill-rule="evenodd" clip-rule="evenodd" d="M214.289 290.619C214.575 298.879 213.986 306.939 212.521 314.8C212.65 306.572 213.238 298.511 214.289 290.619Z" fill="#7F6CC8"/>
<path fill-rule="evenodd" clip-rule="evenodd" d="M251.402 305.844C251.548 308.845 251.4 311.83 250.96 314.8C249.871 317.308 249.282 319.995 249.193 322.861C248.854 323.359 248.412 323.657 247.867 323.756C248.5 317.566 249.678 311.595 251.402 305.844Z" fill="#004466"/>
<path fill-rule="evenodd" clip-rule="evenodd" d="M241.682 303.158C241.364 309.925 240.48 316.492 239.031 322.861C239.031 320.771 239.031 318.681 239.031 316.592C239.031 314.203 239.031 311.816 239.031 309.427C238.885 306.724 239.033 304.037 239.473 301.367C240.098 302.156 240.835 302.752 241.682 303.158Z" fill="#004466"/>
<path fill-rule="evenodd" clip-rule="evenodd" d="M232.846 246.736C232.806 256.149 233.1 265.553 233.729 274.947C232.717 289.316 230.508 303.496 227.102 317.487C225.446 323.14 222.795 328.216 219.149 332.712C218.026 337.418 217.584 342.194 217.823 347.042C217.823 347.34 217.823 347.639 217.823 347.937C215.477 347.045 213.71 345.552 212.521 343.459C212.521 334.205 212.521 324.95 212.521 315.696C212.521 315.398 212.521 315.099 212.521 314.801C213.986 306.939 214.575 298.879 214.289 290.62C214.289 290.022 214.289 289.426 214.289 288.828C215.234 280.911 215.234 272.851 214.289 264.647C215.001 265.873 215.885 267.066 216.94 268.23C216.299 279.845 215.71 291.487 215.172 303.158C215.217 305.328 216.1 306.97 217.823 308.084C217.105 311.229 216.221 314.364 215.172 317.487C215.32 318.383 215.467 319.279 215.614 320.174C217.087 318.383 218.56 316.592 220.033 314.801C219.949 319.318 220.096 323.796 220.474 328.234C222.679 325.104 224.152 321.672 224.893 317.935C224.179 316.407 223.001 315.661 221.358 315.696C221.386 311.106 222.122 306.628 223.567 302.262C224.008 306.431 224.156 310.61 224.009 314.801C224.893 314.801 225.776 314.801 226.66 314.801C226.825 310.014 227.12 305.237 227.544 300.471C226.66 300.471 225.776 300.471 224.893 300.471C225.728 295.67 225.728 290.893 224.893 286.142C225.776 286.142 226.66 286.142 227.544 286.142C227.375 279.257 227.227 272.392 227.102 265.543C228.109 271.996 229.582 278.265 231.52 284.35C232.255 277.465 232.108 270.599 231.078 263.752C230.561 263.939 230.119 264.238 229.753 264.647C229.277 261.935 228.687 259.248 227.986 256.587C226.3 259.123 225.563 258.825 225.776 255.692C226.66 255.692 227.544 255.692 228.427 255.692C227.351 251.639 228.823 248.654 232.846 246.736Z" fill="#067DB8"/>
<path fill-rule="evenodd" clip-rule="evenodd" d="M279.679 315.696C277.793 324.142 274.552 331.904 269.959 338.981C267.829 339.772 265.768 340.817 263.773 342.116C264.513 343.021 264.807 344.067 264.657 345.251C263.184 345.251 261.712 345.251 260.239 345.251C260.693 347.053 260.84 348.844 260.681 350.624C258.5 351.165 256.732 352.36 255.379 354.207C254.232 353.257 253.2 352.213 252.286 351.072C252.849 349.538 253.732 349.389 254.937 350.624C256.259 348.228 255.669 346.437 253.169 345.251C252.265 346.462 251.087 347.06 249.635 347.042C251.499 335.403 255.622 324.656 262.006 314.8C262.853 314.395 263.59 313.798 264.215 313.009C264.394 314.582 264.836 316.074 265.541 317.487C266.09 314.24 266.238 310.956 265.983 307.636C266.3 310.362 266.889 310.661 267.75 308.531C268.794 311.695 270.267 314.68 272.168 317.487C273.052 314.8 273.936 312.114 274.819 309.427C275.125 310.966 275.567 312.459 276.145 313.905C276.829 314.989 277.565 314.989 278.354 313.905C278.599 314.725 279.041 315.322 279.679 315.696Z" fill="#004466"/>
<path fill-rule="evenodd" clip-rule="evenodd" d="M239.031 316.592C239.031 318.681 239.031 320.771 239.031 322.861C238.671 330.286 237.198 337.451 234.613 344.355C232.699 344.426 230.931 345.023 229.311 346.146C226.058 344.78 224.143 345.974 223.567 349.728C222.674 348.979 221.642 348.681 220.474 348.833C220.474 350.027 220.474 351.221 220.474 352.415C222.605 352.09 223.93 352.986 224.451 355.102C228.217 354.377 228.364 354.974 224.893 356.893C223.111 355.813 221.344 355.813 219.591 356.893C220.068 358.011 220.657 359.056 221.358 360.028C219.614 360.471 217.847 360.621 216.056 360.476C215.588 357.169 216.472 354.334 218.707 351.967C218.042 351.366 217.747 350.62 217.823 349.728C217.823 349.131 217.823 348.535 217.823 347.937C217.823 347.639 217.823 347.34 217.823 347.042C219.155 345.439 220.333 343.648 221.358 341.668C219.065 338.903 219.211 336.217 221.8 333.608C222.156 337.128 223.776 338.024 226.66 336.295C227.17 333.088 226.286 330.402 224.009 328.234C225.629 325.736 226.512 326.034 226.66 329.13C229.864 327.246 231.778 328.142 232.404 331.817C233.786 330.142 233.786 328.351 232.404 326.443C230.856 327.615 229.531 327.316 228.427 325.547C227.437 322.244 227.585 318.961 228.869 315.696C229.605 316.592 230.342 317.487 231.078 318.383C231.372 317.935 231.668 317.487 231.962 317.039C230.507 314.715 229.918 312.178 230.194 309.427C231.078 309.427 231.962 309.427 232.845 309.427C232.236 305.853 232.088 302.271 232.404 298.68C234.324 301.229 235.649 304.064 236.38 307.188C233.466 311.442 233.171 315.92 235.496 320.622C234.44 321.207 234.44 321.655 235.496 321.965C236.233 318.383 236.97 314.8 237.706 311.218C237.874 313.195 238.316 314.987 239.031 316.592Z" fill="#067DB8"/>
<path fill-rule="evenodd" clip-rule="evenodd" d="M212.521 315.696C212.521 324.95 212.521 334.205 212.521 343.459C211.387 340.701 210.798 337.715 210.754 334.503C211.164 328.08 211.753 321.811 212.521 315.696Z" fill="#7A69C7"/>
<path fill-rule="evenodd" clip-rule="evenodd" d="M269.96 338.981C268.127 343.076 265.476 346.509 262.007 349.281C262.236 350.41 262.825 351.306 263.774 351.968C268.298 353.812 272.717 355.902 277.029 358.237C278.207 359.132 278.207 360.028 277.029 360.923C267.603 362.715 258.178 362.715 248.752 360.923C247.854 360.459 247.265 359.712 246.984 358.684C248.422 355.72 249.894 352.734 251.403 349.729C250.645 348.9 249.762 348.303 248.752 347.937C248.752 347.34 249.046 347.042 249.635 347.042C251.087 347.06 252.265 346.462 253.17 345.251C255.67 346.437 256.259 348.228 254.937 350.624C253.733 349.389 252.849 349.538 252.286 351.072C253.201 352.213 254.232 353.257 255.379 354.207C256.733 352.36 258.5 351.165 260.681 350.624C260.84 348.844 260.694 347.053 260.239 345.251C261.712 345.251 263.185 345.251 264.658 345.251C264.808 344.067 264.514 343.021 263.774 342.116C265.768 340.817 267.83 339.772 269.96 338.981Z" fill="#3C2D69"/>
<path fill-rule="evenodd" clip-rule="evenodd" d="M262.006 354.207C266.242 355.129 270.365 356.324 274.378 357.789C274.378 358.685 274.378 359.58 274.378 360.476C266.714 360.624 259.055 360.476 251.402 360.028C254.47 360.079 257.121 359.183 259.355 357.341C258.766 357.043 258.177 356.744 257.588 356.446C259.491 356.357 260.963 355.61 262.006 354.207Z" fill="#301E69"/>
<path fill-rule="evenodd" clip-rule="evenodd" d="M234.613 344.355C233.377 346.943 231.315 348.287 228.427 348.385C229.038 349.341 229.48 350.386 229.753 351.52C234.793 353.7 239.653 356.239 244.333 359.132C246.91 360.987 246.615 362.182 243.45 362.715C233.985 363.47 224.559 363.172 215.172 361.819C213.688 361.508 212.804 360.613 212.521 359.132C214.208 355.854 215.975 352.72 217.823 349.729C217.747 350.621 218.043 351.367 218.707 351.968C216.472 354.334 215.589 357.169 216.056 360.476C217.847 360.621 219.615 360.471 221.358 360.028C220.657 359.056 220.068 358.011 219.591 356.893C221.344 355.813 223.111 355.813 224.893 356.893C228.364 354.974 228.217 354.377 224.451 355.102C223.93 352.986 222.605 352.09 220.474 352.415C220.474 351.221 220.474 350.027 220.474 348.833C221.643 348.681 222.674 348.979 223.567 349.729C224.143 345.974 226.058 344.78 229.311 346.146C230.932 345.023 232.699 344.426 234.613 344.355Z" fill="#311761"/>
</svg>
