<svg width="508" height="606" viewBox="0 0 508 606" fill="none" xmlns="http://www.w3.org/2000/svg">
<g filter="url(#filter0_d_2696_872)">
<path d="M25.5648 578.463C29.636 572.401 30.7513 565.732 31.2255 560.254L53.6492 544.525C53.6492 544.525 50.1336 567.122 53.5687 572.54C55.0665 574.902 59.4206 576.648 65.423 579.144C74.929 583.974 86.6656 590.205 87.0844 593.445C87.7827 598.845 31.9039 598.91 22.5969 593.716C17.7297 591 21.1009 585.107 25.5648 578.463Z" fill="#311E69"/>
<path d="M121.512 578.463C125.583 572.401 126.699 565.732 127.172 560.254L149.596 544.525C149.596 544.525 146.081 567.122 149.516 572.54C151.014 574.902 155.367 576.648 161.37 579.144C170.877 583.974 182.613 590.205 183.032 593.445C183.729 598.845 127.852 598.91 118.544 593.716C113.677 591 117.048 585.107 121.512 578.463Z" fill="#311761"/>
<path d="M145.266 213.224C145.266 213.224 182.009 319.954 180.762 377.74C179.811 421.766 179.958 530.111 151.255 565.936C144.576 574.272 129.819 569.885 120.557 569.885C85.4387 569.885 97.5647 502.095 97.5647 502.095L113.308 374.07C113.308 374.07 62.0199 234.767 82.1567 221.133C102.294 207.498 145.266 213.224 145.266 213.224Z" fill="#3E6E86"/>
<path d="M97.564 502.095L113.307 374.069C113.307 374.069 91.3124 314.327 81.7856 269.261C91.7952 272.734 133.502 288.333 129.131 305.721C124.169 325.461 139.777 330.052 139.777 361.728C139.777 393.404 143.381 443.199 133.775 482.344C125.168 517.42 144.896 556.065 139.183 570.989C132.86 571.296 125.821 569.884 120.556 569.884C85.438 569.884 97.564 502.095 97.564 502.095Z" fill="#17272F"/>
<path d="M45.4849 215C45.4849 215 35.022 234.375 32.8181 247.201C30.0241 263.457 45.2842 355.646 40.0605 391.348C36.974 412.443 11.6646 474.084 5.49865 515.749C-3.05896 573.575 26.9446 565.558 47.3254 565.559C73.7847 565.56 103.299 401.724 103.299 375.713C103.299 349.701 98.6217 219.909 98.6217 219.909L45.4849 215Z" fill="#3E6E86"/>
<path d="M5.49829 515.749C11.6651 474.084 36.9737 412.443 40.0601 391.348C45.2838 355.646 30.0238 263.456 32.8177 247.2C35.0216 234.375 45.4846 215 45.4846 215L62.2891 216.552C62.2251 219.746 61.8003 223.547 60.8164 228.138C55.3081 253.846 45.1047 298.377 53.6493 322.249C62.194 346.121 80.5569 349.794 64.9481 394.324C49.3402 438.854 23.1733 476.04 30.0592 491.648C36.9451 507.256 56.8119 541.228 49.6327 551.787C47.9195 554.308 45.6143 559.432 42.7693 565.658C22.8047 566.375 -2.44065 569.396 5.49829 515.749Z" fill="#17272F"/>
<path d="M140.163 98.6565C164.115 91.1199 177.602 174.991 205.275 183.318C231.093 191.088 290.538 135.489 300.291 142.35C336.129 167.561 232.337 271.944 181.955 236.263C139.269 206.032 111.64 107.632 140.163 98.6565Z" fill="#FF6161"/>
<path d="M152.324 156.587C158.934 162.947 173.76 191.512 179.471 201.912C185.182 212.311 188.887 222.396 203.384 224.917C217.881 227.438 215.989 224.287 230.801 216.312C245.613 208.338 236.789 206.009 247.819 205.378C258.849 204.748 273.345 199.705 279.018 185.675C284.691 171.644 285.637 174.178 291.279 164.724C294.571 159.209 302.007 157.885 307.643 157.732C307.012 195.001 225 266.747 181.955 236.262C154.113 216.545 132.691 167.839 129.063 133.849C140.06 135.686 147.086 151.55 152.324 156.587Z" fill="#AD263D"/>
<path d="M199.05 166.158C178.734 134.74 157.085 87.0667 137.223 93.3166C114.374 100.506 119.671 158.129 145.319 198.974C145.34 198.97 189.985 186.813 199.05 166.158Z" fill="#3E6E86"/>
<path d="M155.199 142.096C157.397 122.201 139.227 133.16 134.851 123.955C131.446 116.792 134.107 100.776 135.456 94.0201C114.683 103.601 120.358 159.224 145.319 198.974C145.331 198.972 157.484 195.658 170.395 189.562C165.92 186.467 159.867 185.807 157.238 185.009C152.25 183.492 153.001 161.99 155.199 142.096Z" fill="#17272F"/>
<path d="M43.6063 220.763C42.4546 220.018 38.5262 195.007 30.0863 175.979C22.5861 159.071 3.47122 120.914 40.5173 95.5674C68.5237 76.4058 122.553 80.3783 140.578 93.033C172.952 115.761 141.583 208.395 144.641 216.578C144.641 216.578 92.607 227.544 43.6063 220.763Z" fill="#3E6E86"/>
<path d="M146.533 119.703C143.775 109.474 140.849 99.5514 138.452 91.686C130.976 87.3241 119.049 84.1806 105.636 82.9458C120.694 99.9468 122.746 126.31 122.746 126.31L77.7533 129.853L58.6964 87.1069C51.9905 89.1706 45.7916 91.9577 40.5169 95.5659C39.5512 96.227 38.6332 96.8976 37.7437 97.5751C63.49 128.713 56.3575 202.842 58.0959 223.095C102.904 228.423 144.641 216.577 144.641 216.577C143.958 214.75 144.992 208.708 146.648 200.183C147.312 190.06 148.403 177.459 149.899 164.214C151.585 149.3 150.44 134.195 146.533 119.703Z" fill="#17272F"/>
<path d="M85.7671 39.8583C85.7671 39.8583 82.3553 28.6036 71.766 30.8316C56.7664 33.9873 56.8174 51.3587 61.1135 56.3643C67.1168 63.3592 71.8499 59.4317 76.0586 54.9963C80.2682 50.5609 85.7671 39.8583 85.7671 39.8583Z" fill="#84FEE8"/>
<path d="M66.8027 50.283C66.8027 50.283 73.8712 33.2725 80.5407 29.4021C89.6599 24.1092 95.4694 31.8058 94.7841 36.3927C94.0988 40.9787 86.3416 51.471 83.5961 52.4202C80.8514 53.3694 66.8027 50.283 66.8027 50.283Z" fill="#17272F"/>
<path d="M68.6422 60.1258L68.0391 88.8132C69.1579 92.4725 91.9822 96.3957 96.2861 89.9615C97.5459 88.0786 95.9729 84.7308 93.1893 81.4437L77.2352 63.7902L68.6422 60.1258Z" fill="#FF6161"/>
<path d="M80.4419 67.3394C76.1951 67.8958 70.377 68.5837 70.377 68.5837C70.377 68.5837 72.7478 74.8777 79.8751 77.927C83.6477 79.5407 87.4982 79.6705 90.8581 78.8649L80.4419 67.3394Z" fill="#162F3B"/>
<path d="M87.4343 45.1359C87.4343 45.1359 89.844 41.4351 84.5849 37.0637C79.3257 32.6914 63.8788 51.3105 64.0691 56.9322C64.3521 65.3107 68.4448 69.4883 68.4448 69.4883C68.4448 69.4883 88.6638 54.6981 87.4343 45.1359Z" fill="#614CD4"/>
<path d="M71.1567 49.9307L69.9644 65.819C69.9877 71.0825 74.1869 75.3864 79.4496 75.504C83.6539 75.5983 86.21 74.9745 91.1031 73.1211C95.1803 71.5765 96.3424 67.0122 94.9848 61.5047C93.2239 54.3592 89.5716 48.2789 87.4343 45.1354C82.5637 37.9665 72.6917 39.6331 71.1567 49.9307Z" fill="#FF6161"/>
<path d="M69.9644 65.819L71.1567 49.9307C71.3445 48.6718 71.6603 47.5451 72.0731 46.544C72.581 49.5474 74.1203 55.9098 75.1855 56.7855C77.9171 59.0326 77.1358 56.5441 82.0341 55.1786C85.1526 54.309 89.8346 54.6949 92.8311 55.0904C93.6643 57.0866 94.4249 59.2325 94.9848 61.5047C96.3415 67.0122 95.1803 71.5765 91.1031 73.1211C86.21 74.9745 83.6539 75.5983 79.4496 75.504C74.1869 75.3864 69.9877 71.0825 69.9644 65.819Z" fill="#162F3B"/>
<path d="M82.6011 58.4732C82.6011 58.4732 86.2906 58.4749 91.0531 56.6595C91.0531 56.6595 91.9746 59.8282 90.3073 61.4177C88.6399 63.0072 84.7037 62.0087 82.6011 58.4732Z" fill="white"/>
<path d="M91.0616 67.3332C86.1278 67.5487 84.3107 75.5517 74.2882 70.8627C72.4183 69.987 70.8513 67.1653 69.9903 65.472L69.9644 65.819C69.9877 71.0825 74.1869 75.3864 79.4496 75.504C83.6539 75.5983 86.21 74.9745 91.1031 73.1211C93.5899 72.1788 94.9865 70.1099 95.394 67.3912C94.5893 67.733 92.568 67.2666 91.0616 67.3332Z" fill="#002119"/>
<path d="M73.0174 55.7778C72.5848 54.89 72.2906 53.9495 72.0535 52.9908C71.6027 51.1685 70.5116 48.5666 68.1373 50.5645C64.6848 53.4701 66.8142 62.3392 71.4997 61.9646C74.9781 61.6868 74.1094 58.0137 73.0174 55.7778Z" fill="#FF6161"/>
<path d="M86.4655 168.12L131.599 166.742C131.599 166.742 139.89 192.565 118.149 196.697C96.4084 200.829 82.4108 187.056 86.4655 168.12Z" fill="#28C5A8"/>
<g filter="url(#filter1_d_2696_872)">
<path d="M45.7398 343.822C54.554 337.002 67.266 338.666 74.0627 347.529C80.8398 356.393 79.1944 369.151 70.3607 375.97C61.5269 382.792 48.8345 381.13 42.0378 372.264C35.2411 363.401 36.9061 350.643 45.7398 343.822ZM32.303 326.282C11.2802 342.524 9.70341 374.875 31.5195 392.949C43.5264 402.906 60.7826 405.172 75.0028 398.768C91.0642 391.535 99.4475 376.724 100.035 361.483L394.253 134.188C406.847 124.457 422.615 121.201 438.5 121.815C439.871 121.868 441.242 121.819 442.613 121.662C466.94 118.91 488.486 104.053 498.965 81.8517C503.274 72.7505 505.488 62.9568 502.883 53.7297L478.066 72.8922C470.936 78.4076 460.927 78.203 454.033 72.4023L448.45 67.717C443.808 63.8223 441.262 57.9587 441.575 51.8925L441.947 45.0808C442.339 37.5571 447.06 30.9519 454.033 28.1667L486.214 15.3124C486.214 15.3124 462.827 -10.0736 427.355 4.52734C412.273 10.7411 401.128 33.5444 395.076 50.4251C390.179 64.0977 381.462 76.0216 369.984 84.8829L67.2856 318.731C55.4746 316.067 42.6254 318.3 32.303 326.282Z" fill="#CBCBCB"/>
</g>
<path d="M40.4893 368.981C40.9831 369.862 42.9383 371.771 43.4479 372.433C50.3017 381.335 62.0238 382.872 70.9318 376.023C79.8398 369.175 81.499 356.364 74.6649 347.464C74.2106 346.887 73.7367 346.344 73.2626 345.828L134.986 300.467L414.156 90.5107C414.156 90.5107 436.021 101.785 464.305 98.7472C479.593 97.1039 491.599 82.7696 502.028 73.1229C501.494 74.5036 500.214 79.6575 499.562 81.0125C488.995 103.306 471.826 119.176 447.294 121.939C445.911 122.098 440.767 121.993 439.404 121.939C423.386 121.323 410.245 123.464 397.545 133.235L103.606 359.612C103.013 374.916 91.8093 391.652 75.613 398.915C61.2733 405.346 43.8721 403.07 31.7643 393.074C28.0905 390.052 25.108 386.627 22.7378 382.949L40.4893 368.981Z" fill="#F3F7FF"/>
<path d="M22.7075 115.146C1.84973 129.592 33.0376 194.338 55.3767 225.759C84.4906 266.756 210.704 277.655 216.254 264.421C221.824 251.189 213.37 246.344 201.539 242.919C189.708 239.496 120.103 229.84 95.8873 211.493C84.7078 203.017 46.2712 98.8114 22.7075 115.146Z" fill="#FF6161"/>
<path d="M22.7079 118.087C23.1622 117.773 23.6165 117.584 24.0906 117.357C30.9444 134.985 46.8642 175.505 53.3625 189.422C61.7767 207.404 76.8472 216.915 93.3004 229.321C109.734 241.725 199.07 257.978 214.773 259.983C216.037 260.145 217.064 260.43 217.973 260.767C217.854 262.703 217.301 264.886 216.254 267.362C210.704 280.596 84.4911 269.697 55.3772 228.701C33.0381 197.278 1.85021 132.534 22.7079 118.087Z" fill="#AD263D"/>
<path d="M24.4261 103.643C45.2433 90.8595 74.69 140.063 96.702 178.175C91.0464 184.971 74.2918 205.035 39.1363 204.11C14.6283 163.397 4.51174 115.859 24.4261 103.643Z" fill="#3E6E86"/>
<path d="M24.4261 103.355C25.8865 102.451 27.3999 101.887 28.9665 101.579C29.0196 112.216 29.5508 147.178 33.7726 164.588C37.1183 178.381 51.6955 193.086 61.0686 201.378C54.7225 203.058 47.4738 204.041 39.1363 203.822C14.6283 163.109 4.51173 115.571 24.4261 103.355Z" fill="#17272F"/>
<path d="M222.751 251.029C222.751 251.029 227.985 250.523 229.822 249.917C231.678 249.31 235.945 245.591 237.426 246.782C238.908 247.975 233.496 253.628 232.074 255.903C230.809 257.91 246.216 257.405 245.406 259.739C244.596 262.074 241.396 267.535 236.597 271.189C234.72 272.627 229.447 274.409 220.716 270.601C211.986 266.793 208.411 251.55 222.751 251.029Z" fill="#FF6161"/>
<path d="M347.556 185.04C342.358 183.645 339.958 175.001 339.334 171.113C338.684 167.224 349.53 163.188 350.329 161.584C353.553 155.036 354.753 155.306 358.526 153.107C362.325 150.908 367.823 164.068 368.847 167.379C369.872 170.69 352.729 186.434 347.556 185.04Z" fill="#AD263D"/>
</g>
<defs>
<filter id="filter0_d_2696_872" x="0" y="0" width="508" height="605.554" filterUnits="userSpaceOnUse" color-interpolation-filters="sRGB">
<feFlood flood-opacity="0" result="BackgroundImageFix"/>
<feColorMatrix in="SourceAlpha" type="matrix" values="0 0 0 0 0 0 0 0 0 0 0 0 0 0 0 0 0 0 127 0" result="hardAlpha"/>
<feOffset dy="4"/>
<feGaussianBlur stdDeviation="2"/>
<feComposite in2="hardAlpha" operator="out"/>
<feColorMatrix type="matrix" values="0 0 0 0 0 0 0 0 0 0 0 0 0 0 0 0 0 0 0.25 0"/>
<feBlend mode="normal" in2="BackgroundImageFix" result="effect1_dropShadow_2696_872"/>
<feBlend mode="normal" in="SourceGraphic" in2="effect1_dropShadow_2696_872" result="shape"/>
</filter>
<filter id="filter1_d_2696_872" x="11.8345" y="0" width="496.166" height="410.367" filterUnits="userSpaceOnUse" color-interpolation-filters="sRGB">
<feFlood flood-opacity="0" result="BackgroundImageFix"/>
<feColorMatrix in="SourceAlpha" type="matrix" values="0 0 0 0 0 0 0 0 0 0 0 0 0 0 0 0 0 0 127 0" result="hardAlpha"/>
<feOffset dy="4"/>
<feGaussianBlur stdDeviation="2"/>
<feComposite in2="hardAlpha" operator="out"/>
<feColorMatrix type="matrix" values="0 0 0 0 0 0 0 0 0 0 0 0 0 0 0 0 0 0 0.25 0"/>
<feBlend mode="normal" in2="BackgroundImageFix" result="effect1_dropShadow_2696_872"/>
<feBlend mode="normal" in="SourceGraphic" in2="effect1_dropShadow_2696_872" result="shape"/>
</filter>
</defs>
</svg>
