<svg width="550" height="673" viewBox="0 0 550 673" fill="none" xmlns="http://www.w3.org/2000/svg">
<path opacity="0.98" fill-rule="evenodd" clip-rule="evenodd" d="M275 81.2981C317.114 79.6728 331.725 99.4671 318.83 140.681C316.831 138.484 314.474 136.598 311.761 135.026C307.637 135.826 303.395 135.826 299.036 135.026C299.453 138.186 298.981 141.014 297.622 143.509C297.387 135.483 297.624 127.471 298.329 119.473C302.483 116.071 302.719 112.772 299.036 109.576C297.715 108.066 297.243 106.181 297.622 103.92C299.087 96.676 296.259 92.1988 289.139 90.4883C290.082 89.0744 291.024 87.6605 291.967 86.2466C288.821 85.4533 285.993 84.0394 283.483 82.005C280.694 81.3044 277.866 81.0689 275 81.2981Z" fill="#31A2DA"/>
<path fill-rule="evenodd" clip-rule="evenodd" d="M218.445 109.576C207.674 120.82 196.835 132.131 185.925 143.509C161.378 147.919 136.871 152.631 112.404 157.648C99.2579 151.548 86.0617 145.422 72.8149 139.267C71.9571 139.442 71.4859 139.913 71.401 140.681C69.9518 140.12 69.7161 139.178 70.6941 137.853C80.8269 126.778 90.9597 115.702 101.093 104.627C125.323 99.4982 149.594 94.5496 173.907 89.7812C189.464 95.0921 204.31 101.69 218.445 109.576Z" fill="#D8EFF3"/>
<path fill-rule="evenodd" clip-rule="evenodd" d="M297.622 103.92C297.243 106.181 297.715 108.067 299.036 109.576C299.036 111.932 299.036 114.289 299.036 116.645C297.151 116.645 295.265 116.645 293.381 116.645C293.057 119.378 291.879 121.735 289.846 123.715C287.684 114.322 282.972 112.908 275.707 119.473C275.003 115.258 274.767 111.016 275 106.748C277.374 107.052 278.788 106.109 279.242 103.92C281.141 97.4478 285.382 95.327 291.967 97.558C294.186 99.5329 296.073 101.654 297.622 103.92Z" fill="#F96262"/>
<path fill-rule="evenodd" clip-rule="evenodd" d="M105.334 110.99C114.799 112.453 122.811 116.458 129.37 123.008C121.874 133.507 115.04 142.697 108.869 150.578C100.214 147.061 91.4946 143.526 82.712 139.974C81.5907 138.44 80.6481 136.79 79.8843 135.026C88.4336 126.944 96.9169 118.932 105.334 110.99Z" fill="#E9FDFD"/>
<path fill-rule="evenodd" clip-rule="evenodd" d="M279.242 103.92C278.788 106.109 277.374 107.052 275 106.748C274.767 111.016 275.003 115.257 275.707 119.473C282.972 112.908 287.684 114.322 289.846 123.715C291.879 121.735 293.057 119.378 293.381 116.645C295.265 116.645 297.151 116.645 299.036 116.645C299.036 114.289 299.036 111.932 299.036 109.576C302.719 112.772 302.483 116.071 298.329 119.473C297.624 127.471 297.387 135.483 297.622 143.509C294.622 149.972 289.437 153.272 282.069 153.406C281.746 147.037 282.687 140.909 284.897 135.026C285.84 135.026 286.311 134.555 286.311 133.612C295.363 127.12 293.478 124.528 280.656 125.836C278.952 123.891 277.067 122.241 275 120.887C273.612 115.992 273.141 110.808 273.586 105.334C275.649 105.43 277.534 104.958 279.242 103.92Z" fill="#ED696A"/>
<path fill-rule="evenodd" clip-rule="evenodd" d="M280.656 116.645C283.052 117.368 285.408 118.311 287.725 119.473C283.358 123.652 281.001 122.71 280.656 116.645Z" fill="#FFE2DF"/>
<path fill-rule="evenodd" clip-rule="evenodd" d="M275 81.2981C277.866 81.069 280.694 81.3045 283.483 82.0051C285.993 84.0395 288.821 85.4534 291.967 86.2467C291.024 87.6606 290.082 89.0745 289.139 90.4884C296.259 92.1989 299.087 96.6761 297.622 103.92C296.073 101.654 294.186 99.5327 291.967 97.5578C285.382 95.3268 281.141 97.4476 279.242 103.92C277.534 104.958 275.649 105.429 273.586 105.334C273.141 110.808 273.612 115.992 275 120.887C276.1 127.107 279.869 129.934 286.311 129.37C286.311 130.784 286.311 132.198 286.311 133.612C286.311 134.554 285.84 135.026 284.897 135.026C284.426 135.026 283.954 135.026 283.483 135.026C279.062 132.961 274.821 133.432 270.758 136.44C270.288 136.44 269.815 136.44 269.345 136.44C269.26 135.672 268.789 135.2 267.931 135.026C260.553 136.542 253.484 138.899 246.722 142.095C247.321 141.014 247.793 139.836 248.136 138.56C241.271 124.711 245.276 116.935 260.154 115.231C261.635 106.318 263.049 97.3637 264.396 88.3676C267.063 84.4907 270.597 82.1342 275 81.2981Z" fill="#0079A2"/>
<path fill-rule="evenodd" clip-rule="evenodd" d="M275 120.887C277.067 122.241 278.952 123.89 280.656 125.835C293.478 124.528 295.363 127.12 286.311 133.612C286.311 132.198 286.311 130.784 286.311 129.37C279.869 129.934 276.1 127.107 275 120.887Z" fill="#942942"/>
<path fill-rule="evenodd" clip-rule="evenodd" d="M218.445 109.576C221.05 124.042 224.349 138.181 228.342 151.992C227.399 152.935 226.457 153.877 225.514 154.82C217.364 161.728 209.824 169.268 202.892 177.442C200.535 179.327 198.179 181.213 195.822 183.098C192.185 170.124 188.885 156.927 185.925 143.509C196.835 132.131 207.674 120.82 218.445 109.576Z" fill="#7B9C9E"/>
<path fill-rule="evenodd" clip-rule="evenodd" d="M185.925 143.509C188.885 156.927 192.185 170.124 195.822 183.098C195.352 184.041 194.879 184.983 194.409 185.926C170.773 189.865 147.208 194.106 123.715 198.651C123.715 200.064 123.715 201.478 123.715 202.892C122.122 202.013 120.708 200.835 119.473 199.358C106.268 194.958 93.307 190.009 80.5911 184.512C76.3537 170.159 73.2902 155.548 71.4009 140.681C71.4857 139.914 71.957 139.442 72.8148 139.268C86.0616 145.422 99.2577 151.549 112.403 157.648C136.871 152.632 161.377 147.919 185.925 143.509Z" fill="#94B4B9"/>
<path fill-rule="evenodd" clip-rule="evenodd" d="M324.486 143.509C329.599 144.073 334.313 145.487 338.625 147.751C332.241 148.073 326.115 147.131 320.244 144.923C318.042 150.731 317.1 156.857 317.417 163.303C316.946 163.303 316.474 163.303 316.003 163.303C315.259 156.787 316.202 150.659 318.831 144.923C320.512 143.609 322.396 143.139 324.486 143.509Z" fill="#E77A76"/>
<path fill-rule="evenodd" clip-rule="evenodd" d="M283.483 135.026C283.954 135.026 284.426 135.026 284.897 135.026C282.687 140.909 281.746 147.037 282.069 153.406C289.437 153.272 294.622 149.972 297.622 143.509C298.981 141.014 299.453 138.186 299.036 135.026C303.395 135.826 307.637 135.826 311.761 135.026C314.474 136.599 316.831 138.484 318.83 140.681C320.715 141.624 322.601 142.566 324.486 143.509C322.396 143.139 320.511 143.61 318.83 144.923C316.202 150.659 315.259 156.787 316.002 163.304C314.212 171.833 314.683 180.317 317.416 188.753C320.244 188.753 323.072 188.753 325.9 188.753C325.9 189.224 325.9 189.696 325.9 190.167C322.129 190.638 318.359 191.11 314.589 191.581C312.858 192.117 312.387 195.888 313.175 202.892C312.232 199.121 311.29 195.352 310.347 191.581C309.026 190.071 308.554 188.186 308.933 185.926C308.731 170.025 310.381 154.472 313.882 139.268C311.317 137.487 308.725 137.487 306.105 139.268C301.669 149.196 298.841 159.564 297.622 170.373C286.978 169.093 276.609 166.736 266.517 163.304C271.498 153.319 277.153 143.894 283.483 135.026Z" fill="#D9E6EE"/>
<path fill-rule="evenodd" clip-rule="evenodd" d="M338.624 147.751C343.231 150.659 348.179 153.487 353.47 156.234C355.967 157.27 358.559 157.743 361.247 157.648C365.467 158.816 369.236 160.7 372.558 163.303C373.829 170.213 378.07 173.513 385.283 173.2C386.535 174.367 387.006 175.781 386.696 177.442C379.989 176.789 378.575 178.91 382.455 183.805C381.271 185.234 380.801 186.884 381.041 188.753C377.435 188.667 375.315 186.782 374.678 183.098C360.517 184.356 346.378 184.828 332.262 184.512C329.658 182.164 326.594 180.751 323.072 180.27C323.455 177.612 322.512 175.727 320.244 174.614C318.067 171.309 317.125 167.538 317.416 163.303C317.1 156.857 318.041 150.731 320.244 144.923C326.114 147.131 332.241 148.073 338.624 147.751Z" fill="#FC6160"/>
<path opacity="0.847" fill-rule="evenodd" clip-rule="evenodd" d="M338.625 147.75C346.925 149.549 354.466 152.849 361.247 157.648C358.559 157.742 355.967 157.27 353.47 156.234C348.18 153.487 343.231 150.659 338.625 147.75Z" fill="#EA8483"/>
<path fill-rule="evenodd" clip-rule="evenodd" d="M269.344 136.439C269.815 136.439 270.287 136.439 270.758 136.439C263.256 149.14 255.716 161.865 248.136 174.614C240.101 189.744 232.089 204.826 224.1 219.858C224.571 216.088 225.043 212.318 225.514 208.547C231.975 182.669 244.228 159.811 262.275 139.974C264.669 138.777 267.026 137.599 269.344 136.439Z" fill="#D9E4EB"/>
<path fill-rule="evenodd" clip-rule="evenodd" d="M225.514 154.82C225.699 155.865 225.463 156.808 224.807 157.648C217.657 164.57 210.352 171.169 202.892 177.442C209.824 169.268 217.365 161.728 225.514 154.82Z" fill="#904452"/>
<path fill-rule="evenodd" clip-rule="evenodd" d="M283.483 135.026C277.153 143.894 271.498 153.318 266.517 163.303C276.609 166.736 286.978 169.093 297.622 170.373C298.841 159.564 301.669 149.196 306.105 139.267C308.725 137.486 311.317 137.486 313.882 139.267C310.381 154.472 308.731 170.025 308.933 185.925C307.782 188.938 307.075 192.237 306.812 195.823C300.686 202.892 294.558 209.961 288.432 217.031C288.413 236.347 288.886 255.671 289.846 275C293.199 278.115 296.263 281.415 299.036 284.897C295.603 282.716 291.834 281.302 287.725 280.656C286.96 272.806 286.017 265.029 284.897 257.326C286.519 246.363 286.755 235.288 285.604 224.1C284.78 221.977 283.602 220.092 282.069 218.445C280.668 221.022 278.784 223.143 276.414 224.807C278.204 225.244 279.854 225.951 281.362 226.928C282.79 234.079 282.084 240.913 279.242 247.429C277.413 248.122 275.527 248.358 273.586 248.136C273.207 239.82 273.679 231.573 275 223.393C271.863 220.433 270.449 217.134 270.758 213.496C272.586 212.803 274.473 212.567 276.414 212.789C275.82 209.715 275.82 206.888 276.414 204.306C281.483 202.591 283.131 204.476 281.362 209.961C280.224 206.567 279.047 206.803 277.828 210.668C278.605 213.277 280.019 215.398 282.069 217.031C290.693 209.877 298.469 201.866 305.398 192.995C303.965 182.876 303.022 172.508 302.571 161.889C301.64 165.827 300.463 169.597 299.036 173.2C287.828 171.289 276.752 168.933 265.81 166.131C264.495 169.618 263.317 169.382 262.275 165.424C266.951 155.093 265.772 153.443 258.74 160.476C255.532 165.478 252.704 170.663 250.257 176.028C249.716 175.242 249.009 174.771 248.136 174.614C255.716 161.865 263.256 149.14 270.758 136.44C274.82 133.433 279.062 132.961 283.483 135.026Z" fill="#1B153D"/>
<path fill-rule="evenodd" clip-rule="evenodd" d="M299.036 284.897C304.666 289.105 310.321 293.346 316.002 297.622C324.445 305.824 333.163 313.835 342.159 321.658C342.866 333.902 343.101 346.156 342.866 358.419C342.296 388.157 343.003 417.849 344.987 447.493C351.878 470.759 359.184 493.852 366.902 516.774C366.7 519.265 367.172 521.622 368.316 523.843C367.373 524.786 366.431 525.728 365.488 526.671C369.487 531.592 370.901 537.012 369.73 542.93C372.944 549.778 374.828 557.083 375.385 564.846C370.154 564.789 369.211 566.203 372.558 569.087C364.868 577.261 356.384 584.33 347.108 590.295C337.891 592.959 330.114 590.602 323.779 583.226C313.859 569.041 307.026 553.488 303.278 536.568C305.06 533.76 304.59 531.168 301.864 528.792C301.54 524.213 301.54 519.501 301.864 514.653C298.108 507.894 294.81 501.061 291.966 494.151C284.126 459.38 276.586 424.505 269.344 389.524C269.233 387.502 269.703 385.616 270.758 383.869C268.294 378.934 265.938 373.986 263.689 369.023C264.16 368.552 264.632 368.08 265.103 367.609C263.347 367.169 261.933 367.876 260.861 369.73C259.157 367.414 257.273 366.943 255.206 368.316C254.404 374.168 252.99 379.824 250.964 385.283C252.019 387.03 252.489 388.916 252.378 390.938C248.509 413.874 245.918 436.967 244.601 460.218C244.321 497.925 244.321 535.629 244.601 573.329C243.592 581.558 239.114 586.27 231.17 587.468C228.366 586.983 226.48 587.926 225.514 590.295C223.157 590.295 220.802 590.295 218.445 590.295C210.432 590.295 202.421 590.295 194.409 590.295C189.088 589.791 183.903 588.613 178.856 586.761C175.792 585.583 173.671 583.462 172.493 580.398C171.197 523.966 173.318 467.883 178.856 412.146C179.728 412.303 180.435 412.774 180.977 413.56C181.202 405.903 182.145 398.361 183.804 390.938C184.982 388.817 186.632 387.167 188.753 385.99C187.235 384.945 186.292 383.531 185.925 381.748C186.515 373.303 187.929 365.054 190.167 357.005C188.968 354.306 188.496 351.478 188.753 348.522C188.753 347.108 188.753 345.694 188.753 344.28C199.475 343.278 208.665 339.036 216.324 331.555C219.59 324.817 220.533 317.747 219.152 310.347C216.066 295.565 213.004 280.955 209.961 266.517C209.042 263.781 208.571 260.953 208.547 258.033C209.42 257.876 210.127 257.405 210.668 256.619C212.94 249.089 215.061 241.547 217.031 233.997C220.104 229.734 222.461 225.02 224.1 219.858C232.089 204.826 240.101 189.744 248.136 174.614C249.008 174.771 249.715 175.242 250.257 176.028C252.704 170.662 255.532 165.478 258.74 160.475C265.771 153.443 266.951 155.093 262.275 165.424C263.317 169.381 264.495 169.618 265.81 166.131C276.752 168.933 287.828 171.289 299.036 173.2C300.462 169.596 301.64 165.827 302.571 161.889C303.022 172.508 303.965 182.876 305.398 192.995C298.469 201.865 290.693 209.876 282.069 217.031C280.019 215.398 278.605 213.277 277.828 210.668C279.046 206.803 280.224 206.567 281.362 209.961C283.131 204.475 281.483 202.591 276.414 204.306C275.82 206.887 275.82 209.715 276.414 212.789C274.472 212.567 272.586 212.803 270.758 213.496C270.449 217.134 271.862 220.432 275 223.393C273.679 231.572 273.207 239.82 273.586 248.136C275.527 248.358 277.413 248.122 279.242 247.429C282.083 240.913 282.79 234.079 281.362 226.928C279.854 225.951 278.204 225.244 276.414 224.807C278.783 223.143 280.668 221.022 282.069 218.445C283.602 220.092 284.78 221.976 285.604 224.1C286.755 235.288 286.519 246.363 284.897 257.326C286.017 265.029 286.96 272.805 287.725 280.655C291.834 281.301 295.603 282.715 299.036 284.897Z" fill="#1F1340"/>
<path fill-rule="evenodd" clip-rule="evenodd" d="M269.345 136.44C267.026 137.599 264.669 138.777 262.275 139.974C244.228 159.811 231.976 182.669 225.514 208.548C221.883 216.614 219.056 225.097 217.031 233.998C215.061 241.548 212.941 249.089 210.669 256.62C210.127 257.406 209.42 257.877 208.548 258.034C205.267 242.536 202.44 226.983 200.064 211.375C199.881 203.585 198.467 196.043 195.823 188.753C198.204 184.967 200.559 181.198 202.892 177.442C210.352 171.169 217.657 164.57 224.807 157.648C225.463 156.808 225.699 155.865 225.514 154.82C226.457 153.877 227.399 152.936 228.342 151.992C234.106 148.137 240.233 144.837 246.723 142.095C253.484 138.899 260.553 136.543 267.931 135.026C268.789 135.201 269.26 135.672 269.345 136.44Z" fill="#AA283F"/>
<path fill-rule="evenodd" clip-rule="evenodd" d="M316.003 163.303C316.474 163.303 316.946 163.303 317.417 163.303C317.125 167.538 318.067 171.309 320.244 174.614C320.799 176.988 321.506 179.345 322.365 181.684C325.654 183.898 328.716 186.253 331.555 188.753C329.671 188.753 327.785 188.753 325.9 188.753C323.072 188.753 320.244 188.753 317.417 188.753C314.684 180.316 314.213 171.833 316.003 163.303Z" fill="#3E215B"/>
<path fill-rule="evenodd" clip-rule="evenodd" d="M379.627 194.409C376.016 192.845 372.246 191.667 368.316 190.874C368.962 190.289 369.435 189.582 369.73 188.753C366.666 188.282 363.604 187.81 360.54 187.339C349.17 189.657 337.622 190.6 325.9 190.167C325.9 189.696 325.9 189.224 325.9 188.753C327.785 188.753 329.671 188.753 331.555 188.753C344.579 186.144 357.776 185.438 371.144 186.632C373.825 189.556 376.653 192.148 379.627 194.409Z" fill="#F4DADA"/>
<path fill-rule="evenodd" clip-rule="evenodd" d="M379.627 194.409C384.847 199.162 390.032 203.875 395.18 208.548C390.702 207.603 387.167 205.248 384.576 201.478C383.392 203.609 381.742 204.316 379.627 203.599C378.774 201.019 377.831 198.426 376.799 195.823C373.414 197.555 370.114 200.148 366.902 203.599C356.062 204.542 345.223 204.542 334.383 203.599C327.913 201.596 321.787 198.768 316.002 195.116C314.939 194.167 314.467 192.989 314.589 191.581C318.359 191.11 322.129 190.638 325.9 190.167C337.622 190.6 349.169 189.657 360.54 187.339C363.604 187.81 366.666 188.282 369.73 188.753C369.434 189.582 368.962 190.289 368.316 190.874C372.245 191.667 376.016 192.845 379.627 194.409Z" fill="#ECFBFB"/>
<path fill-rule="evenodd" clip-rule="evenodd" d="M194.409 185.925C194.409 188.282 194.409 190.638 194.409 192.995C191.13 193.69 188.302 195.104 185.926 197.236C179.881 198.394 174.226 200.28 168.959 202.892C153.954 205.833 138.872 206.304 123.715 204.306C123.715 203.835 123.715 203.363 123.715 202.892C123.715 201.478 123.715 200.064 123.715 198.65C147.208 194.106 170.773 189.864 194.409 185.925Z" fill="#00334D"/>
<path fill-rule="evenodd" clip-rule="evenodd" d="M372.558 163.303C391.468 173.469 408.2 186.665 422.751 202.892C424.76 205.585 426.41 208.413 427.699 211.375C430.357 218.422 431.771 225.964 431.941 233.997C428.392 232.183 424.621 230.769 420.63 229.756C412.146 222.686 403.663 215.617 395.18 208.547C390.032 203.875 384.847 199.162 379.627 194.409C376.652 192.148 373.825 189.556 371.144 186.632C357.776 185.438 344.578 186.144 331.555 188.753C328.716 186.253 325.654 183.898 322.365 181.684C321.505 179.345 320.798 176.988 320.244 174.614C322.512 175.727 323.455 177.612 323.072 180.27C326.594 180.751 329.658 182.164 332.262 184.511C346.378 184.828 360.517 184.356 374.679 183.098C375.315 186.782 377.436 188.667 381.041 188.753C380.801 186.884 381.272 185.234 382.455 183.805C378.575 178.91 379.989 176.789 386.697 177.442C387.006 175.781 386.535 174.367 385.283 173.2C378.07 173.513 373.829 170.213 372.558 163.303Z" fill="#F76564"/>
<path fill-rule="evenodd" clip-rule="evenodd" d="M202.892 177.442C200.559 181.198 198.204 184.967 195.823 188.753C198.467 196.043 199.88 203.585 200.064 211.376C198.437 205.146 196.552 199.02 194.409 192.995C194.409 190.638 194.409 188.283 194.409 185.926C194.88 184.983 195.352 184.041 195.823 183.098C198.18 181.213 200.535 179.327 202.892 177.442Z" fill="#92364D"/>
<path fill-rule="evenodd" clip-rule="evenodd" d="M209.961 266.517C213.004 280.955 216.066 295.565 219.151 310.347C220.533 317.747 219.59 324.817 216.324 331.555C208.665 339.036 199.474 343.278 188.753 344.28C188.753 345.694 188.753 347.108 188.753 348.522C188.282 348.522 187.81 348.522 187.339 348.522C186.417 346.79 184.767 345.847 182.391 345.694C174.49 347.093 166.713 346.386 159.061 343.573C155.415 342.052 153.058 339.46 151.992 335.797C166.51 334.735 181.119 332.851 195.822 330.142C195.716 326.316 195.246 322.545 194.409 318.83C179.089 322.367 163.536 323.78 147.75 323.072C147.75 321.187 147.75 319.301 147.75 317.417C163.104 318.326 178.186 316.912 192.995 313.175C192.052 308.462 191.11 303.749 190.167 299.036C174.828 302.482 159.275 303.896 143.509 303.278C143.509 302.335 143.509 301.393 143.509 300.45C158.298 298.449 173.378 296.092 188.753 293.381C188.141 289.611 187.434 285.842 186.632 282.07C186.084 280.757 185.141 279.814 183.804 279.242C173.466 281.638 163.333 283.995 153.406 286.311C151.521 283.483 151.521 280.656 153.406 277.828C163.929 277.514 174.297 276.1 184.511 273.586C184.041 268.874 183.568 264.16 183.097 259.447C167.276 262.935 151.253 264.349 135.025 263.689C135.025 262.275 135.025 260.861 135.025 259.447C150.03 258.497 165.111 256.613 180.27 253.792C179.491 249.116 179.02 244.404 178.856 239.653C162.976 243.625 146.953 244.568 130.784 242.481C130.784 241.538 130.784 240.596 130.784 239.653C145.796 238.812 160.877 236.927 176.028 233.998C175.864 229.247 175.393 224.534 174.614 219.859C159.264 223.304 143.711 224.718 127.956 224.1C127.956 222.216 127.956 220.33 127.956 218.445C141.784 219.039 155.452 217.86 168.959 214.91C170.633 213.242 171.576 211.121 171.786 208.548C171.666 205.956 170.723 204.071 168.959 202.892C174.225 200.281 179.881 198.395 185.925 197.237C188.706 197.575 191.299 197.104 193.702 195.823C195.705 206.052 197.119 216.42 197.943 226.928C198.886 227.871 199.828 228.813 200.771 229.756C203.354 240.941 205.475 252.252 207.133 263.689C207.483 265.404 208.426 266.347 209.961 266.517Z" fill="#94B3B8"/>
<path fill-rule="evenodd" clip-rule="evenodd" d="M168.959 202.892C170.724 204.071 171.667 205.956 171.787 208.548C171.576 211.121 170.633 213.242 168.959 214.91C155.452 217.859 141.784 219.039 127.956 218.445C127.956 220.329 127.956 222.216 127.956 224.1C125.652 217.864 124.239 211.265 123.715 204.306C138.872 206.304 153.954 205.833 168.959 202.892Z" fill="#D6ECF2"/>
<path fill-rule="evenodd" clip-rule="evenodd" d="M310.347 191.581C311.29 195.352 312.232 199.121 313.175 202.892C313.035 218.012 313.742 233.093 315.296 248.136C334.824 265.765 354.382 283.202 373.972 300.45C367.24 308.843 360.171 317.09 352.763 325.193C360.762 325.898 368.774 326.135 376.799 325.9C369.492 327.052 361.952 327.994 354.177 328.728C350.684 328.31 347.621 326.897 344.987 324.486C344.745 336.047 344.038 347.358 342.866 358.419C343.101 346.156 342.866 333.902 342.159 321.658C333.163 313.835 324.445 305.824 316.002 297.622C310.757 287.663 303.215 280.123 293.38 275C291.64 257.141 290.933 239.232 291.26 221.273C298.356 212.874 304.484 204.391 309.64 195.823C310.323 194.482 310.558 193.068 310.347 191.581Z" fill="#93B3B8"/>
<path fill-rule="evenodd" clip-rule="evenodd" d="M194.409 192.995C196.552 199.019 198.437 205.146 200.064 211.375C202.439 226.983 205.267 242.536 208.547 258.033C208.571 260.953 209.042 263.781 209.961 266.516C208.426 266.347 207.483 265.404 207.134 263.689C205.475 252.252 203.354 240.941 200.771 229.756C199.828 228.812 198.886 227.871 197.943 226.928C197.119 216.42 195.705 206.052 193.702 195.822C191.299 197.103 188.706 197.574 185.925 197.236C188.302 195.104 191.13 193.69 194.409 192.995Z" fill="#A2A5B0"/>
<path fill-rule="evenodd" clip-rule="evenodd" d="M225.514 208.547C225.043 212.318 224.571 216.088 224.1 219.858C222.461 225.02 220.105 229.734 217.031 233.997C219.055 225.097 221.883 216.614 225.514 208.547Z" fill="#DEBDD2"/>
<path fill-rule="evenodd" clip-rule="evenodd" d="M130.784 239.653C128.8 234.833 127.857 229.65 127.956 224.1C143.711 224.718 159.264 223.304 174.614 219.858C175.393 224.534 175.864 229.247 176.028 233.997C160.877 236.927 145.797 238.811 130.784 239.653Z" fill="#D5EEF1"/>
<path fill-rule="evenodd" clip-rule="evenodd" d="M427.699 211.375C436.723 221.415 442.378 233.197 444.666 246.723C442.385 243.997 440.971 240.697 440.424 236.825C438.677 235.614 436.792 234.672 434.769 233.998C433.826 254.963 432.884 275.699 431.941 296.208C431.941 288.668 431.941 281.127 431.941 273.586C432.504 261.472 431.561 249.69 429.113 238.239C426.718 234.901 423.89 232.073 420.63 229.756C424.621 230.77 428.392 232.184 431.941 233.998C431.771 225.964 430.357 218.422 427.699 211.375Z" fill="#EE6B6B"/>
<path fill-rule="evenodd" clip-rule="evenodd" d="M314.589 191.581C314.467 192.989 314.939 194.167 316.003 195.116C321.787 198.768 327.913 201.596 334.383 203.599C345.223 204.542 356.062 204.542 366.902 203.599C370.115 200.148 373.415 197.555 376.799 195.823C377.832 198.426 378.775 201.019 379.627 203.599C381.742 204.316 383.392 203.609 384.576 201.478C387.167 205.248 390.702 207.603 395.18 208.548C403.663 215.617 412.146 222.686 420.63 229.756C423.89 232.073 426.718 234.901 429.113 238.239C428.931 250.319 429.874 262.101 431.941 273.586C431.941 281.126 431.941 288.668 431.941 296.208C431.47 296.208 430.998 296.208 430.527 296.208C411.659 297.467 392.807 298.881 373.972 300.45C354.382 283.202 334.824 265.765 315.296 248.136C313.742 233.093 313.035 218.012 313.175 202.892C312.387 195.888 312.858 192.117 314.589 191.581ZM340.039 232.584C363.949 236.697 379.501 250.365 386.697 273.586C362.765 269.449 347.213 255.781 340.039 232.584Z" fill="#D7EEF2"/>
<path fill-rule="evenodd" clip-rule="evenodd" d="M386.697 273.586C379.501 250.364 363.949 236.696 340.039 232.583C337.996 223.231 341.296 216.868 349.936 213.496C372.175 212.482 388.907 221.672 400.129 241.067C405.258 249.113 406.201 257.596 402.956 266.517C398.623 271.393 393.203 273.75 386.697 273.586Z" fill="#94B4B9"/>
<path fill-rule="evenodd" clip-rule="evenodd" d="M135.026 259.447C132.917 254.125 131.503 248.47 130.784 242.481C146.953 244.567 162.977 243.624 178.856 239.653C179.02 244.403 179.491 249.116 180.27 253.792C165.112 256.612 150.03 258.497 135.026 259.447Z" fill="#D6EEF2"/>
<path fill-rule="evenodd" clip-rule="evenodd" d="M444.666 246.722C444.666 247.193 444.666 247.666 444.666 248.136C445.106 263.469 444.163 278.549 441.838 293.381C438.699 296.336 436.579 300.106 435.476 304.692C435.04 303.549 434.333 302.606 433.355 301.864C432.009 304.048 431.538 306.405 431.941 308.933C429.45 308.731 427.093 309.203 424.872 310.347C424.168 311.907 423.697 313.321 423.458 314.589C420.38 313.169 419.907 314.111 422.044 317.417C421.337 317.887 420.63 318.36 419.923 318.83C414.111 320.109 408.219 320.579 402.25 320.244C402.25 318.36 402.25 316.474 402.25 314.589C406.119 314.773 408.947 313.124 410.733 309.64C410.634 308.559 410.163 307.852 409.319 307.519C405.712 307.282 404.769 305.868 406.491 303.278C412.827 304.901 419.425 305.137 426.285 303.985C429.062 301.933 430.947 299.342 431.941 296.208C432.884 275.699 433.826 254.963 434.769 233.998C436.792 234.672 438.677 235.614 440.424 236.825C440.971 240.697 442.385 243.997 444.666 246.722Z" fill="#FA6160"/>
<path fill-rule="evenodd" clip-rule="evenodd" d="M153.406 277.828C151.724 274.539 148.896 272.889 144.923 272.879C146.106 271.45 146.577 269.8 146.337 267.931C141.996 267.744 137.754 268.215 133.612 269.344C134.65 267.636 135.121 265.752 135.026 263.689C151.253 264.349 167.276 262.935 183.098 259.447C183.569 264.16 184.041 268.874 184.512 273.586C174.298 276.1 163.93 277.514 153.406 277.828Z" fill="#D5EDF1"/>
<path fill-rule="evenodd" clip-rule="evenodd" d="M429.113 238.239C431.56 249.69 432.503 261.472 431.941 273.586C429.874 262.101 428.931 250.319 429.113 238.239Z" fill="#E7AFB0"/>
<path fill-rule="evenodd" clip-rule="evenodd" d="M308.933 185.925C308.554 188.186 309.026 190.071 310.347 191.581C310.558 193.068 310.323 194.482 309.64 195.822C304.483 204.391 298.356 212.874 291.259 221.272C290.933 239.231 291.64 257.141 293.38 275C303.215 280.122 310.757 287.663 316.002 297.622C310.321 293.346 304.666 289.105 299.036 284.897C296.263 281.415 293.199 278.115 289.846 275C288.886 255.671 288.413 236.347 288.432 217.031C294.558 209.961 300.686 202.892 306.812 195.822C307.075 192.237 307.782 188.938 308.933 185.925Z" fill="#92A8B8"/>
<path fill-rule="evenodd" clip-rule="evenodd" d="M444.666 248.136C448.41 263.456 447.467 278.538 441.838 293.38C444.162 278.549 445.105 263.468 444.666 248.136Z" fill="#F19390"/>
<path fill-rule="evenodd" clip-rule="evenodd" d="M153.406 277.828C151.521 280.655 151.521 283.483 153.406 286.311C149.883 290.8 145.169 293.155 139.267 293.38C129.435 289.751 125.429 282.681 127.249 272.172C129.129 270.642 131.25 269.699 133.612 269.344C137.754 268.215 141.996 267.744 146.337 267.93C146.577 269.8 146.106 271.45 144.923 272.879C148.896 272.889 151.724 274.539 153.406 277.828Z" fill="#A73143"/>
<path fill-rule="evenodd" clip-rule="evenodd" d="M143.509 300.45C142.367 298.018 140.953 295.661 139.268 293.381C145.169 293.156 149.883 290.8 153.406 286.311C163.333 283.995 173.467 281.638 183.805 279.242C185.141 279.814 186.084 280.757 186.633 282.069C187.434 285.842 188.141 289.611 188.753 293.381C173.379 296.092 158.298 298.449 143.509 300.45Z" fill="#D5EDF2"/>
<path fill-rule="evenodd" clip-rule="evenodd" d="M430.527 296.208C430.998 296.208 431.47 296.208 431.941 296.208C430.947 299.341 429.062 301.933 426.286 303.984C419.425 305.137 412.827 304.901 406.491 303.277C413.104 302.804 419.703 302.097 426.286 301.157C427.996 299.688 429.41 298.038 430.527 296.208Z" fill="#A68988"/>
<path fill-rule="evenodd" clip-rule="evenodd" d="M147.75 323.072C145.644 316.792 144.23 310.193 143.509 303.278C159.275 303.896 174.828 302.482 190.167 299.036C191.11 303.749 192.052 308.462 192.995 313.175C178.186 316.912 163.104 318.326 147.75 317.417C147.75 319.301 147.75 321.187 147.75 323.072Z" fill="#D5EEF2"/>
<path fill-rule="evenodd" clip-rule="evenodd" d="M441.838 293.38C439.012 304.464 432.885 313.183 423.458 319.537C420.291 320.919 416.992 321.625 413.561 321.658C408.376 321.658 403.193 321.658 398.008 321.658C398.008 318.83 398.008 316.002 398.008 313.175C402.372 312.119 406.143 310.234 409.319 307.519C410.163 307.851 410.634 308.558 410.733 309.64C408.947 313.124 406.119 314.772 402.249 314.589C402.249 316.473 402.249 318.359 402.249 320.244C408.219 320.579 414.111 320.108 419.923 318.83C420.63 318.359 421.337 317.887 422.044 317.416C419.907 314.111 420.38 313.169 423.458 314.589C423.697 313.32 424.167 311.906 424.872 310.347C427.093 309.203 429.45 308.731 431.941 308.933C431.538 306.405 432.009 304.048 433.355 301.864C434.333 302.606 435.04 303.549 435.476 304.691C436.579 300.106 438.699 296.335 441.838 293.38Z" fill="#E87173"/>
<path fill-rule="evenodd" clip-rule="evenodd" d="M430.527 296.208C429.41 298.038 427.996 299.688 426.286 301.157C419.702 302.097 413.104 302.804 406.491 303.277C404.769 305.868 405.712 307.282 409.319 307.519C406.143 310.234 402.373 312.118 398.008 313.175C398.008 316.002 398.008 318.83 398.008 321.658C403.193 321.658 408.376 321.658 413.561 321.658C411.993 322.775 410.108 323.482 407.905 323.779C397.563 324.955 387.195 325.662 376.8 325.9C368.774 326.134 360.762 325.898 352.764 325.193C360.171 317.09 367.24 308.842 373.972 300.45C392.808 298.88 411.659 297.466 430.527 296.208Z" fill="#7F9B9C"/>
<path fill-rule="evenodd" clip-rule="evenodd" d="M151.992 335.797C149.204 332.143 147.79 327.902 147.75 323.072C163.536 323.78 179.089 322.366 194.409 318.83C195.246 322.544 195.716 326.315 195.822 330.141C181.12 332.85 166.51 334.735 151.992 335.797Z" fill="#D2EBEF"/>
<path fill-rule="evenodd" clip-rule="evenodd" d="M269.344 389.525C267.636 383.032 264.809 376.904 260.861 371.144C259.024 371.978 257.847 373.392 257.326 375.386C255.476 380.693 253.827 385.878 252.378 390.938C252.489 388.917 252.019 387.03 250.964 385.283C252.99 379.824 254.404 374.168 255.206 368.316C257.273 366.943 259.157 367.414 260.861 369.73C261.933 367.877 263.347 367.17 265.103 367.609C264.632 368.08 264.16 368.552 263.689 369.023C265.938 373.986 268.294 378.935 270.758 383.869C269.703 385.617 269.233 387.503 269.344 389.525Z" fill="#352C4D"/>
<path fill-rule="evenodd" clip-rule="evenodd" d="M187.339 348.522C187.81 348.522 188.282 348.522 188.753 348.522C188.496 351.478 188.968 354.306 190.167 357.005C187.929 365.054 186.515 373.303 185.925 381.748C186.292 383.531 187.235 384.945 188.753 385.99C186.632 387.168 184.982 388.818 183.805 390.938C182.145 398.361 181.202 405.903 180.977 413.561C180.435 412.774 179.728 412.304 178.856 412.147C180.365 390.746 183.192 369.538 187.339 348.522Z" fill="#2C2347"/>
<path fill-rule="evenodd" clip-rule="evenodd" d="M291.967 494.152C294.81 501.061 298.109 507.895 301.864 514.653C301.54 519.501 301.54 524.214 301.864 528.792C304.59 531.169 305.061 533.76 303.278 536.568C298.216 522.927 294.445 508.788 291.967 494.152Z" fill="#362E4E"/>
<path fill-rule="evenodd" clip-rule="evenodd" d="M366.902 516.774C372.183 530.821 375.952 545.43 378.213 560.604C378.032 564.075 376.618 566.903 373.972 569.088C373.501 569.088 373.029 569.088 372.558 569.088C369.211 566.203 370.154 564.789 375.385 564.846C374.828 557.084 372.944 549.778 369.73 542.931C370.901 537.012 369.487 531.593 365.488 526.671C366.431 525.728 367.373 524.786 368.316 523.843C367.172 521.622 366.7 519.265 366.902 516.774Z" fill="#2E2647"/>
<path opacity="0.925" fill-rule="evenodd" clip-rule="evenodd" d="M231.17 587.468C229.739 591.359 228.325 595.13 226.928 598.779C227.345 595.619 226.873 592.791 225.514 590.296C226.48 587.926 228.366 586.983 231.17 587.468Z" fill="#984B5E"/>
<path fill-rule="evenodd" clip-rule="evenodd" d="M372.558 569.087C373.029 569.087 373.501 569.087 373.972 569.087C376.524 576.745 379.351 584.285 382.455 591.71C380.887 591.79 379.473 592.261 378.213 593.123C373.762 599.202 367.636 602.029 359.833 601.607C357.336 595.807 353.094 592.036 347.108 590.296C356.384 584.33 364.868 577.261 372.558 569.087Z" fill="#9B324D"/>
<path fill-rule="evenodd" clip-rule="evenodd" d="M378.213 593.123C375.811 592.897 373.454 593.132 371.144 593.83C371.79 594.416 372.262 595.123 372.558 595.951C365.511 598.769 359.619 597.355 354.884 591.709C356.003 587.266 358.83 583.967 363.368 581.812C365.206 583.519 367.326 584.462 369.73 584.64C369.345 574.406 371.702 574.17 376.799 583.933C377.615 586.955 378.086 590.018 378.213 593.123Z" fill="#AC263D"/>
<path fill-rule="evenodd" clip-rule="evenodd" d="M218.445 590.295C220.801 590.295 223.157 590.295 225.514 590.295C226.873 592.791 227.345 595.619 226.928 598.779C225.292 605.794 223.878 612.864 222.686 619.987C221.743 619.516 220.801 619.044 219.858 618.573C218.761 609.189 218.29 599.763 218.445 590.295Z" fill="#AB3141"/>
<path fill-rule="evenodd" clip-rule="evenodd" d="M382.455 591.709C385.317 595.063 386.965 598.834 387.404 603.021C382.372 606.363 376.952 608.72 371.144 610.09C362.234 611.671 353.28 613.085 344.28 614.332C349.724 610.428 354.908 606.186 359.833 601.607C367.636 602.029 373.763 599.202 378.213 593.123C379.473 592.261 380.887 591.79 382.455 591.709Z" fill="#24163F"/>
<path fill-rule="evenodd" clip-rule="evenodd" d="M371.144 610.09C362.272 614.664 352.845 616.548 342.866 615.745C343.042 614.887 343.512 614.416 344.28 614.331C353.279 613.084 362.234 611.671 371.144 610.09Z" fill="#36304C"/>
<path fill-rule="evenodd" clip-rule="evenodd" d="M194.409 590.295C202.421 590.295 210.432 590.295 218.445 590.295C218.291 599.763 218.761 609.189 219.859 618.573C216.969 621.305 213.434 622.719 209.254 622.815C205.723 622.225 202.188 621.753 198.65 621.401C196.626 611.133 195.212 600.764 194.409 590.295Z" fill="#E6646C"/>
<path fill-rule="evenodd" clip-rule="evenodd" d="M197.236 591.709C203.653 592.527 210.015 593.47 216.324 594.537C216.56 597.601 216.795 600.664 217.031 603.727C216.294 609.229 215.351 614.648 214.203 619.987C211.846 619.987 209.49 619.987 207.134 619.987C207.504 615.15 205.618 613.736 201.478 615.745C198.79 607.959 197.376 599.948 197.236 591.709Z" fill="#FC6160"/>
<path fill-rule="evenodd" clip-rule="evenodd" d="M219.859 618.573C220.802 619.044 221.744 619.516 222.687 619.987C224.488 623.512 225.43 627.281 225.514 631.298C209.39 634.526 193.366 634.762 177.442 632.005C178.856 630.591 180.27 629.177 181.684 627.763C187.922 626.922 193.578 624.801 198.651 621.401C202.188 621.753 205.723 622.225 209.255 622.815C213.434 622.719 216.969 621.305 219.859 618.573Z" fill="#2C1D42"/>
</svg>
